/* XPM */
static char *foot_xpm[] = {
/* width height num_colors chars_per_pixel */
"    15    20      149            2",
/* colors */
".. c #a4a19c",
".# c #e9e3df",
".a c #92867b",
".b c #aaa7a4",
".c c #9b9389",
".d c #ebe8e6",
".e c #e7e3de",
".f c #8d7d72",
".g c #6b645a",
".h c #ede9e5",
".i c #b7a79b",
".j c #9c9185",
".k c #e7e1de",
".l c #cfc1b6",
".m c #87766b",
".n c #6f6863",
".o c #c5b5aa",
".p c #8d7d74",
".q c #675d58",
".r c #b3a598",
".s c #a49185",
".t c #574e49",
".u c #6c6560",
".v c #aca9a6",
".w c #93877d",
".x c #353535",
".y c #6d665f",
".z c #877c72",
".A c #776a62",
".B c #423e3e",
".C c #80786e",
".D c #e7e4e1",
".E c #ada096",
".F c #d7d2cd",
".G c #d0c7c0",
".H c #92847a",
".I c #c0b3a7",
".J c #665a55",
".K c #6c635e",
".L c #e1dfdc",
".M c #f2eeec",
".N c #e7e1dd",
".O c #d6ccc5",
".P c #c5b4a7",
".Q c #82766c",
".R c #999188",
".S c #7a716b",
".T c #857b74",
".U c #d3d2cf",
".V c #f1edea",
".W c #d4c6bc",
".X c #c8b6a9",
".Y c #beaea2",
".Z c #9c8b7f",
".0 c #3a3a3a",
".1 c #d9d7d4",
".2 c #dfd6cf",
".3 c #9a8d81",
".4 c #f5f3f1",
".5 c #dcd0c8",
".6 c #c6b3a5",
".7 c #c9b7a9",
".8 c #c4b2a4",
".9 c #7d6e64",
"#. c #464242",
"## c #a89a90",
"#a c #918378",
"#b c #544e48",
"#c c #c7beb6",
"#d c #eae4e0",
"#e c #c8b7ab",
"#f c #c0ada0",
"#g c #bfaea0",
"#h c #85766c",
"#i c #2a2a2a",
"#j c #7a7269",
"#k c #7c746e",
"#l c #756f68",
"#m c #c9c0b7",
"#n c #e4dbd5",
"#o c #cebfb3",
"#p c #b3a395",
"#q c #5c514b",
"#r c #766d67",
"#s c #aba299",
"#t c #e2d9d1",
"#u c #cbb9ad",
"#v c #9c8a7e",
"#w c #3c3c3c",
"#x c #7e766c",
"#y c #e1dfdc",
"#z c #ece6e2",
"#A c #b4a499",
"#B c #9a938b",
"#C c #ded4cc",
"#D c #cbb9ab",
"#E c #87766d",
"#F c #dbd2ca",
"#G c #e1d7d0",
"#H c #d3c4ba",
"#I c #9a8b80",
"#J c #726962",
"#K c #dacec5",
"#L c #ccbaae",
"#M c #9e8c7e",
"#N c #7b736a",
"#O c #8f8278",
"#P c #d4c7bd",
"#Q c #c6b4a6",
"#R c #6c6059",
"#S c #766d65",
"#T c #b9a89b",
"#U c #c3afa0",
"#V c #b09b8d",
"#W c #b5a79c",
"#X c #aaa39b",
"#Y c #cac7c5",
"#Z c #ede8e3",
"#0 c #403c3c",
"#1 c #978b81",
"#2 c #baa699",
"#3 c #c7b5a6",
"#4 c #d0c0b5",
"#5 c #dacec6",
"#6 c #e9e2dd",
"#7 c #d9ccc3",
"#8 c #928278",
"#9 c #9d8c80",
"a. c #ad9a8b",
"a# c #ccbcae",
"aa c #c9b7aa",
"ab c #b7a597",
"ac c #463b3b",
"ad c #746b65",
"ae c #877a6d",
"af c #8d7d70",
"ag c #aa9689",
"ah c #b19e8e",
"ai c #aa9889",
"aj c #5d524d",
"ak c #7c7469",
"al c #4d4646",
"am c #323232",
"an c #272727",
"ao c #474040",
"ap c #80766e",
"aq c #7a7469",
"ar c #776f66",
"as c None",
/* pixels */
"asasasasasas...#.aasasasasasas",
"asasas.b.cas.d.e.f.gasasasasas",
"asasas.h.i.j.k.l.m.nasasasasas",
"asasas.o.p.q.r.s.t.uasasasasas",
"as.vas.w.x.y.z.A.B.Casasasasas",
"as.D.Easasasas.F.G.Hasasasasas",
"as.I.J.Kas.L.M.N.O.P.Qasasasas",
"as.R.S.T.U.V.W.X.Y.Z.0asasasas",
".1.2.3as.4.5.6.7.8.9#.asasasas",
"###a#b#c#d#e#f#g#h#i#jasasasas",
"as#k#l#m#n#o#p#q.0#rasasasasas",
"asasas#s#t#u#v#w#xasas#y#z#Aas",
"asasas#B#C#D#E.yasas#F#G#H#I#J",
"asasasas#K#L#M#Nasas#O#P#Q#R#S",
"asasasas#T.X#U#V#W#X#Y#Z#f#0#S",
"asasasas#1#2#3.6#4#5#6#7#8.xas",
"asasasasas#9a..8a#aa#uabacadas",
"asasasasasasaeafagahaiaj#.asas",
"asasasasasasasakalamanaoapasas",
"asasasasasasasasasaqarasasasas"
};
