/* XPM */
static char * tb_copy_xpm[] = {
"24 24 9 1",
" 	c None",
".	c #020204",
"+	c #9F9F8F",
"@	c #DDDDC7",
"#	c #EAEAD3",
"$	c #B2B2A4",
"%	c #42423C",
"&	c #6A6A64",
"*	c #262624",
"                        ",
"                        ",
"                        ",
"                        ",
"                        ",
"        ..              ",
"      ..@+.             ",
"    .*$+@@.    ..       ",
"    .#&$@@+. ..@+.      ",
"    .@%+@@#.*$+@@.      ",
"    .&+@@@@.#&$@@+.     ",
"    .$@@@@#.@%+@@#.     ",
"    .+@@###.&+@@@@$.    ",
"     .@@@##.$@@@@##+.   ",
"     .$####.+@@#####.   ",
"      .##+...@@@####+.  ",
"      .+..  .$####$..   ",
"       .     .##$..     ",
"          .  .+..       ",
"       .....  .         ",
"       .....            ",
"          .             ",
"                        ",
"                        "};
