/* XPM */
static char * tb_edit_xpm[] = {
"24 24 9 1",
" 	c None",
".	c #020204",
"+	c #918B6E",
"@	c #D4CEAB",
"#	c #EAEAD4",
"$	c #A4A493",
"%	c #595442",
"&	c #363632",
"*	c #70706C",
"                        ",
"                        ",
"             .          ",
"           ..$.         ",
"         ..+#@&      .  ",
"       ..$@@#@#.    .@. ",
"     ..$@#@#@$#$.  .@*. ",
"    .**@@@@$$###& .@+.  ",
"    .#&@@+$@##$##.@*.   ",
"    .##&+@#@#+##.@+.    ",
"    .##&+@#+$##.@*.     ",
"    .#%$@@$###.@+.#.    ",
"    ..$@#+###.@*.###.   ",
"    .*@++###.@+.#@@$$.  ",
"    .$@#@##+%..@$$$$*.  ",
"     .#####..$+$$+$..   ",
"     .$##+++@@@$##.     ",
"      %#$#######+.      ",
"      .########.        ",
"       .#####$.         ",
"       .@###%.          ",
"        .#$.            ",
"         ..             ",
"                        "};
