/* XPM */
static char * tb_new_xpm[] = {
"24 24 9 1",
" 	c None",
".	c #020204",
"+	c #8D8D80",
"@	c #D5D5BF",
"#	c #E5E5CE",
"$	c #F2F2DB",
"%	c #5C5C59",
"&	c #363632",
"*	c #ADAD9A",
"                        ",
"                        ",
"             .          ",
"           ..*.         ",
"         ..+#@&         ",
"       ..*@@@@#.        ",
"     ..*@@@#@##*.       ",
"    .+%@@@@@@###&       ",
"    .#&*@@######$.      ",
"    .$$&@@@@##$$#*.     ",
"    .#$&+@####$$$$.     ",
"    .$%+@@##$$$$$$$.    ",
"    ..+@#@###$$$$$$*.   ",
"    .+@@###$$$$$$$$$@.  ",
"    .+@#@###$$$$$$$$+.  ",
"     .#####$$$$$$$$..   ",
"     .*#####$$$$$#.     ",
"      %##$$$$$$$+.      ",
"      .#$#$$$$#.        ",
"       .$$$$#*.         ",
"       .*$$@%.          ",
"        .$*.            ",
"         ..             ",
"                        "};
