/* XPM */
static char * tb_paste_xpm[] = {
"24 24 9 1",
" 	c None",
".	c #020204",
"+	c #86867A",
"@	c #CECBBB",
"#	c #E7E7D1",
"$	c #AFAE9F",
"%	c #454541",
"&	c #65655F",
"*	c #2A2A28",
"                        ",
"                        ",
"                        ",
"         ...            ",
"       ..@@@.      .    ",
"     ..@@@@@.   .....   ",
"   ..@@+*&+@@.  .....   ",
"  .@@@&#$+%@@.     .    ",
"  .@@@%$&%@@@@.         ",
"   .@@&%$@@@@@. ..      ",
"   .@@@@@@@@@@..@+.     ",
"    .@@@@$@@.*$$@#.     ",
"    .@@@@@@@.#&@@@$.    ",
"     .@@@@@@.#%$###.    ",
"     .@@@@@$.&$@@##$.   ",
"      .@@$@@.$#@####$.  ",
"      .$@$@$.+##@####.  ",
"       .@$$$..#######$. ",
"       .$$.. .$####$..  ",
"        ..    .##$..    ",
"              .$..      ",
"               .        ",
"                        ",
"                        "};
