/* XPM */
static char * tb_print_xpm[] = {
"24 24 9 1",
" 	c None",
".	c #020204",
"+	c #939292",
"@	c #D0D0CF",
"#	c #4E4D4D",
"$	c #EDEDEC",
"%	c #373737",
"&	c #6D6D6D",
"*	c #ADACAD",
"                        ",
"                        ",
"                        ",
"            ..          ",
"           .$@#..       ",
"          .$$$$$@#...   ",
"         .@$$$$$$@$+.   ",
"         %$$$$$$$$@.    ",
"       ..*$$$$$@@@#     ",
"     ..@*++$$$$$@@..    ",
"   ..@$$$$*#&&*$@%#&..  ",
"  .+*$$$$$$$$+&#&#&#%.  ",
"  .***@$$$$$$$$$@%%%%.  ",
"  .******@$$$$$@#%%%%.  ",
"  .&******++@@@%%%%%%.  ",
"  .&%&******+&%%%%#%%.  ",
"  .&####&++**&%%%%%%..  ",
"   ..####%##&&%%%%%.    ",
"     ...###&&&#%%..     ",
"        ...#&&%%.       ",
"           .....        ",
"                        ",
"                        ",
"                        "};
