/* XPM */
static char * tb_prefs_xpm[] = {
"24 24 9 1",
" 	c None",
".	c #020204",
"+	c #8B8260",
"@	c #D4CFC1",
"#	c #E6E6E4",
"$	c #A6A79D",
"%	c #726848",
"&	c #BA8C60",
"*	c #A95857",
"                        ",
"                        ",
"                        ",
"             ..         ",
"           ..#@.     .  ",
"         ..@###.    .@. ",
"      ...######@.  .@+. ",
"    ..@####@#@##. .@+.  ",
"   .#####*#@#@+#@.@+.   ",
"   .@####*$#$+##.@+.    ",
"    .####*#%###.@+.     ",
"    .#@*&*####.@+.@.    ",
"     .##**###.@+.@#@.   ",
"     .@#####.@+.@#@@+.  ",
"      .####&%..@$$$$+.  ",
"      .####..$$$$$$@.   ",
"       .#$++$@@@#@..    ",
"       .@#######@.      ",
"        .######..       ",
"        .####@.         ",
"         .#@..          ",
"          ..            ",
"                        ",
"                        "};
