/* XPM */
static char * tb_search_xpm[] = {
"24 24 9 1",
" 	c None",
".	c #030305",
"+	c #929283",
"@	c #D6D6C0",
"#	c #EEEED8",
"$	c #4A4A44",
"%	c #73736C",
"&	c #353530",
"*	c #B1B19E",
"                        ",
"                        ",
"             .          ",
"           ..*.         ",
"         ..+@@&         ",
"       ..*@@@@@.        ",
"     ..*@@@@@#@*.       ",
"    .%$@@@@@#@##&       ",
"    .#&*@@@@#@###.      ",
"    .##&@@@@##@##*.     ",
"    .##&+@*$..$*##.     ",
"    .#$+@*&+@@+&@##.    ",
"    ..+@@$+##**%$##*.   ",
"    .%@@@.@#@***.###@.  ",
"    .+#@#.@@**++.###+.  ",
"     .@#@$+**++%$##..   ",
"     .*##*&+*+%..#.     ",
"      $###*$..$%..      ",
"      .#######@....     ",
"       .#####*.  ...    ",
"       .*##@$.    ...   ",
"        .#*.       ..   ",
"         ..             ",
"                        "};
