/* XPM */
static char * tb_save_xpm[] = {
"24 24 9 1",
" 	c None",
".	c #020204",
"+	c #789DA9",
"@	c #BBCED1",
"#	c #F6F8F7",
"$	c #9DB5BA",
"%	c #455559",
"&	c #566E73",
"*	c #D8DCDC",
"                        ",
"                        ",
"                        ",
"              ..        ",
"            ..+%.       ",
"          ..@$#+.       ",
"        ..@$*##+%.      ",
"      ..@$*####*+.      ",
"    ..+@@#######$%.     ",
"   .$@*#########*+.     ",
"   .+$###########+%.    ",
"    .$#########*+++.    ",
"    .&$#######++&&+%.   ",
"     .$####*++&%&+&+.   ",
"     .&$#*++&$*#&+&+%.  ",
"      .$++&@##**$&+%%.  ",
"      .+++@#%****++%..  ",
"       .$+&#%+**$&..    ",
"       .&++@*$*+%.      ",
"        .&+&*+..        ",
"         .....          ",
"                        ",
"                        ",
"                        "};
