/* XPM */
static char * gE_icon_2_xpm[] = {
"48 48 927 2",
"  	c None",
" .	c #000000",
" +	c #0A0400",
" @	c #080300",
" #	c #060200",
" $	c #040200",
" %	c #010000",
" &	c #020000",
" *	c #060100",
" =	c #080000",
" -	c #0B0000",
" ;	c #090000",
" >	c #050000",
" ,	c #030100",
" '	c #050200",
" )	c #070300",
" !	c #0B0400",
" ~	c #0F0500",
" {	c #0D0400",
" ]	c #090301",
" ^	c #030101",
" /	c #090403",
" (	c #100707",
" _	c #0F0807",
" :	c #0C0807",
" <	c #090806",
" [	c #0A0806",
" }	c #0C0805",
" |	c #0E0905",
" 1	c #0E0803",
" 2	c #0E0702",
" 3	c #110701",
" 4	c #1B0A01",
" 5	c #220B01",
" 6	c #210901",
" 7	c #150601",
" 8	c #090201",
" 9	c #010100",
" 0	c #050101",
" a	c #4C3F07",
" b	c #584908",
" c	c #63530A",
" d	c #6D5B0B",
" e	c #77630B",
" f	c #7C680B",
" g	c #7D690B",
" h	c #7E6A0A",
" i	c #7E6A09",
" j	c #836D0B",
" k	c #8B730E",
" l	c #917811",
" m	c #957912",
" n	c #8E730C",
" o	c #886D05",
" p	c #7E6903",
" q	c #6E6C08",
" r	c #5E700E",
" s	c #5A760C",
" t	c #5C8007",
" u	c #618803",
" v	c #80920A",
" w	c #9D9B10",
" x	c #A69C10",
" y	c #989309",
" z	c #8B8A01",
" A	c #7D7A00",
" B	c #6E6901",
" C	c #615802",
" D	c #5F6002",
" E	c #5E7001",
" F	c #5D7F00",
" G	c #628701",
" H	c #6F8504",
" I	c #7B8307",
" J	c #86810A",
" K	c #907F0C",
" L	c #9B7C0C",
" M	c #A47A0C",
" N	c #AD770C",
" O	c #190902",
" P	c #0C0701",
" Q	c #413905",
" R	c #509600",
" S	c #547703",
" T	c #4E5306",
" U	c #3B3106",
" V	c #1A1103",
" W	c #050300",
" X	c #050301",
" Y	c #040402",
" Z	c #020404",
" `	c #010202",
". 	c #0B0402",
"..	c #170D03",
".+	c #241903",
".@	c #201504",
".#	c #1B1204",
".$	c #170F04",
".%	c #140D04",
".&	c #0F0A04",
".*	c #0A0803",
".=	c #070502",
".-	c #B7740D",
".;	c #030000",
".>	c #1E0B04",
".,	c #130B04",
".'	c #363204",
".)	c #559000",
".!	c #0A0F04",
".~	c #0A0C04",
".{	c #090904",
".]	c #070503",
".^	c #020101",
"./	c #010101",
".(	c #010001",
"._	c #000002",
".:	c #040100",
".<	c #060201",
".[	c #030204",
".}	c #020204",
".|	c #020203",
".1	c #030202",
".2	c #080501",
".3	c #160D05",
".4	c #241508",
".5	c #201408",
".6	c #140E05",
".7	c #080602",
".8	c #030201",
".9	c #040301",
".0	c #A5650A",
".a	c #220E07",
".b	c #191007",
".c	c #2C2B02",
".d	c #5B8800",
".e	c #141804",
".f	c #6E6924",
".g	c #656A1E",
".h	c #596716",
".i	c #4C6210",
".j	c #3F5A0A",
".k	c #334907",
".l	c #293904",
".m	c #1E2A01",
".n	c #121B03",
".o	c #080F03",
".p	c #030502",
".q	c #020201",
".r	c #050202",
".s	c #0E0904",
".t	c #110F03",
".u	c #0F1400",
".v	c #1B2302",
".w	c #2A3207",
".x	c #3C430D",
".y	c #060402",
".z	c #211C0D",
".A	c #845006",
".B	c #070000",
".C	c #1B0A04",
".D	c #1E140A",
".E	c #222301",
".F	c #618100",
".G	c #212303",
".H	c #5E5A18",
".I	c #7C8B01",
".J	c #7E8B00",
".K	c #818D00",
".L	c #848E00",
".M	c #888F00",
".N	c #8D9401",
".O	c #939A04",
".P	c #979A0A",
".Q	c #958E1B",
".R	c #94802C",
".S	c #918122",
".T	c #8E890C",
".U	c #8F8300",
".V	c #946E01",
".W	c #946002",
".X	c #885D00",
".Y	c #7E5D00",
".Z	c #7A6407",
".`	c #776A0B",
"+ 	c #7C6F06",
"+.	c #807500",
"++	c #817E03",
"+@	c #7F8607",
"+#	c #868405",
"+$	c #937D02",
"+%	c #A07600",
"+&	c #A27400",
"+*	c #A47202",
"+=	c #A47204",
"+-	c #9E7303",
"+;	c #987702",
"+>	c #927800",
"+,	c #505515",
"+'	c #4A3F18",
"+)	c #663C03",
"+!	c #130602",
"+~	c #1D130A",
"+{	c #222300",
"+]	c #677800",
"+^	c #333001",
"+/	c #4E4B0E",
"+(	c #808402",
"+_	c #697302",
"+:	c #747F04",
"+<	c #808C07",
"+[	c #8F9B0A",
"+}	c #929F0C",
"+|	c #88990E",
"+1	c #7E9311",
"+2	c #6D900C",
"+3	c #599005",
"+4	c #528E02",
"+5	c #6B870A",
"+6	c #858210",
"+7	c #9B7F06",
"+8	c #AB7D00",
"+9	c #9C7D08",
"+0	c #917E0F",
"+a	c #918914",
"+b	c #8E8D18",
"+c	c #837A1E",
"+d	c #7B6E1E",
"+e	c #7E750E",
"+f	c #817C00",
"+g	c #747605",
"+h	c #68700B",
"+i	c #656D0B",
"+j	c #6A6A06",
"+k	c #6D6701",
"+l	c #776B00",
"+m	c #857301",
"+n	c #927C02",
"+o	c #8C7B00",
"+p	c #5C6414",
"+q	c #180E07",
"+r	c #705C17",
"+s	c #482A00",
"+t	c #0A0300",
"+u	c #1B110A",
"+v	c #2E2B00",
"+w	c #677A00",
"+x	c #4A4100",
"+y	c #3E3D05",
"+z	c #847D03",
"+A	c #736F02",
"+B	c #956300",
"+C	c #7F5D15",
"+D	c #665325",
"+E	c #4B442C",
"+F	c #423723",
"+G	c #3E2C15",
"+H	c #3B2209",
"+I	c #422004",
"+J	c #461F00",
"+K	c #432402",
"+L	c #3E2905",
"+M	c #48341C",
"+N	c #543F37",
"+O	c #4D351D",
"+P	c #442D0C",
"+Q	c #362E15",
"+R	c #333119",
"+S	c #3E3A1B",
"+T	c #443D17",
"+U	c #4A3A0F",
"+V	c #493709",
"+W	c #443508",
"+X	c #403306",
"+Y	c #422E06",
"+Z	c #432905",
"+`	c #452704",
"@ 	c #472A06",
"@.	c #482B07",
"@+	c #9F8303",
"@@	c #907B00",
"@#	c #65720F",
"@$	c #201009",
"@%	c #8E750A",
"@&	c #361F00",
"@*	c #190F09",
"@=	c #3C3100",
"@-	c #667E02",
"@;	c #575402",
"@>	c #323100",
"@,	c #897504",
"@'	c #7F6B01",
"@)	c #896400",
"@!	c #4E7500",
"@~	c #444B0C",
"@{	c #302510",
"@]	c #0F0707",
"@^	c #100705",
"@/	c #110703",
"@(	c #160A02",
"@_	c #1E0F02",
"@:	c #251202",
"@<	c #291100",
"@[	c #261401",
"@}	c #201803",
"@|	c #130703",
"@1	c #090001",
"@2	c #050100",
"@3	c #060302",
"@4	c #0F0A0B",
"@5	c #090605",
"@6	c #492C08",
"@7	c #8C7A08",
"@8	c #947901",
"@9	c #6D8108",
"@0	c #28110A",
"@a	c #917C00",
"@b	c #392500",
"@c	c #170D09",
"@d	c #4C3700",
"@e	c #648504",
"@f	c #646A06",
"@g	c #332D00",
"@h	c #896F07",
"@i	c #8B6601",
"@j	c #7C6500",
"@k	c #5E7208",
"@l	c #425700",
"@m	c #595E03",
"@n	c #776009",
"@o	c #91610F",
"@p	c #7F740F",
"@q	c #6D870E",
"@r	c #5D8606",
"@s	c #548400",
"@t	c #818205",
"@u	c #8C760E",
"@v	c #635C16",
"@w	c #35280C",
"@x	c #190E04",
"@y	c #161304",
"@z	c #312E09",
"@A	c #5F5712",
"@B	c #4E3605",
"@C	c #3C2402",
"@D	c #29210B",
"@E	c #1D1D0C",
"@F	c #181604",
"@G	c #141100",
"@H	c #080702",
"@I	c #010102",
"@J	c #35240F",
"@K	c #79700B",
"@L	c #9B7802",
"@M	c #748C00",
"@N	c #311709",
"@O	c #817900",
"@P	c #3D2C00",
"@Q	c #150A08",
"@R	c #4C360A",
"@S	c #648906",
"@T	c #71850B",
"@U	c #342A00",
"@V	c #826E0D",
"@W	c #8E6800",
"@X	c #706500",
"@Y	c #6D6E10",
"@Z	c #333F05",
"@`	c #58550C",
"# 	c #5F6312",
"#.	c #657419",
"#+	c #667C1C",
"#@	c #5F7716",
"##	c #6B7316",
"#$	c #90741C",
"#%	c #966F11",
"#&	c #8D6B00",
"#*	c #777D0B",
"#=	c #7F8212",
"#-	c #887917",
"#;	c #795D15",
"#>	c #6E770B",
"#,	c #718505",
"#'	c #86730A",
"#)	c #7A7B05",
"#!	c #698700",
"#~	c #7D7D03",
"#{	c #907406",
"#]	c #7D6704",
"#^	c #685D01",
"#/	c #1B140D",
"#(	c #65640D",
"#_	c #A07806",
"#:	c #7D8600",
"#<	c #381E07",
"#[	c #717600",
"#}	c #413300",
"#|	c #140807",
"#1	c #3B2B10",
"#2	c #748207",
"#3	c #74820A",
"#4	c #352600",
"#5	c #7B6C14",
"#6	c #8C6C00",
"#7	c #6B6203",
"#8	c #7C6A17",
"#9	c #232707",
"#0	c #474506",
"#a	c #975E00",
"#b	c #866C00",
"#c	c #717D01",
"#d	c #766D02",
"#e	c #864F03",
"#f	c #6E5B03",
"#g	c #435006",
"#h	c #0D1507",
"#i	c #080801",
"#j	c #120C00",
"#k	c #211703",
"#l	c #12110A",
"#m	c #2C250D",
"#n	c #4E4511",
"#o	c #706618",
"#p	c #77640C",
"#q	c #8F7405",
"#r	c #B08E00",
"#s	c #A28B00",
"#t	c #5B5500",
"#u	c #040000",
"#v	c #5D640F",
"#w	c #A27B0A",
"#x	c #858000",
"#y	c #3C2602",
"#z	c #657302",
"#A	c #393300",
"#B	c #120506",
"#C	c #1F170C",
"#D	c #837B07",
"#E	c #716305",
"#F	c #211106",
"#G	c #6A5A16",
"#H	c #897000",
"#I	c #665D07",
"#J	c #886010",
"#K	c #18190A",
"#L	c #302F01",
"#M	c #926D00",
"#N	c #776B09",
"#O	c #6D670A",
"#P	c #61610B",
"#Q	c #5E5C10",
"#R	c #3C380D",
"#S	c #040202",
"#T	c #020002",
"#U	c #070404",
"#V	c #070505",
"#W	c #0E0E0F",
"#X	c #050606",
"#Y	c #454105",
"#Z	c #557B00",
"#`	c #716E00",
"$ 	c #806A03",
"$.	c #856D0B",
"$+	c #6D7301",
"$@	c #5E5803",
"$#	c #596911",
"$$	c #A47E0F",
"$%	c #8E7C02",
"$&	c #4A3800",
"$*	c #6D760F",
"$=	c #2C2F00",
"$-	c #0E0404",
"$;	c #0E0B07",
"$>	c #927207",
"$,	c #6B4601",
"$'	c #0E0307",
"$)	c #473210",
"$!	c #857C00",
"$~	c #655809",
"${	c #94560A",
"$]	c #151712",
"$^	c #1D1C0B",
"$/	c #8C7D00",
"$(	c #716A11",
"$_	c #7A7800",
"$:	c #728403",
"$<	c #6B8405",
"$[	c #695300",
"$}	c #191112",
"$|	c #010002",
"$1	c #010003",
"$2	c #010006",
"$3	c #050304",
"$4	c #060203",
"$5	c #0B0604",
"$6	c #5D6B02",
"$7	c #828700",
"$8	c #8E8A00",
"$9	c #848300",
"$0	c #8B6A11",
"$a	c #767A0B",
"$b	c #605A05",
"$c	c #020100",
"$d	c #556C14",
"$e	c #91820E",
"$f	c #8F8209",
"$g	c #5E5100",
"$h	c #76781D",
"$i	c #202B00",
"$j	c #080202",
"$k	c #14110D",
"$l	c #655203",
"$m	c #5E3700",
"$n	c #020001",
"$o	c #231408",
"$p	c #808A00",
"$q	c #765206",
"$r	c #684D17",
"$s	c #0C0D0D",
"$t	c #0D0D0C",
"$u	c #72730F",
"$v	c #6B691A",
"$w	c #766400",
"$x	c #97590D",
"$y	c #747609",
"$z	c #507915",
"$A	c #2C4127",
"$B	c #010103",
"$C	c #000308",
"$D	c #0A0A02",
"$E	c #36430A",
"$F	c #627206",
"$G	c #7B7106",
"$H	c #847908",
"$I	c #847500",
"$J	c #985C13",
"$K	c #7A7E10",
"$L	c #5A540D",
"$M	c #586213",
"$N	c #6D8609",
"$O	c #8F8710",
"$P	c #747100",
"$Q	c #7E7B25",
"$R	c #1F2104",
"$S	c #191816",
"$T	c #383000",
"$U	c #4A2B01",
"$V	c #030001",
"$W	c #120A03",
"$X	c #6A7F00",
"$Y	c #874D01",
"$Z	c #272C15",
"$`	c #050505",
"% 	c #030303",
"%.	c #55621F",
"%+	c #8A7A12",
"%@	c #7A5F00",
"%#	c #836704",
"%$	c #9A4B06",
"%%	c #A17722",
"%&	c #70691F",
"%*	c #110C16",
"%=	c #01030D",
"%-	c #00020C",
"%;	c #030308",
"%>	c #1B2B0E",
"%,	c #4A5400",
"%'	c #94A706",
"%)	c #82A000",
"%!	c #878C08",
"%~	c #807C12",
"%{	c #8E5902",
"%]	c #886612",
"%^	c #6E790A",
"%/	c #524D15",
"%(	c #5C5913",
"%_	c #4E8604",
"%:	c #908110",
"%<	c #7F8000",
"%[	c #80811C",
"%}	c #221508",
"%|	c #100603",
"%1	c #141515",
"%2	c #1A1400",
"%3	c #321E01",
"%4	c #060401",
"%5	c #3F5000",
"%6	c #4B3D01",
"%7	c #0D120A",
"%8	c #030404",
"%9	c #2E3615",
"%0	c #8D820C",
"%a	c #9B8F07",
"%b	c #82690B",
"%c	c #6B770B",
"%d	c #896802",
"%e	c #675329",
"%f	c #97770B",
"%g	c #626800",
"%h	c #423201",
"%i	c #36401F",
"%j	c #88820E",
"%k	c #6F7B02",
"%l	c #A07700",
"%m	c #A07506",
"%n	c #777508",
"%o	c #747C21",
"%p	c #895A05",
"%q	c #5B8A0E",
"%r	c #787913",
"%s	c #0E0E04",
"%t	c #070100",
"%u	c #4F411F",
"%v	c #5C6D04",
"%w	c #94720A",
"%x	c #888B00",
"%y	c #808811",
"%z	c #230B0B",
"%A	c #160905",
"%B	c #120501",
"%C	c #0B0B0C",
"%D	c #180C03",
"%E	c #1C0B04",
"%F	c #060101",
"%G	c #1D2701",
"%H	c #1D2300",
"%I	c #080C06",
"%J	c #090B05",
"%K	c #5B790D",
"%L	c #757903",
"%M	c #8B611C",
"%N	c #7E7004",
"%O	c #321F0F",
"%P	c #040707",
"%Q	c #555A05",
"%R	c #6E580C",
"%S	c #514A08",
"%T	c #525213",
"%U	c #60600B",
"%V	c #090A14",
"%W	c #A6760E",
"%X	c #566802",
"%Y	c #8A910A",
"%Z	c #826205",
"%`	c #837203",
"& 	c #9D7F2D",
"&.	c #060403",
"&+	c #221913",
"&@	c #665604",
"&#	c #966305",
"&$	c #848800",
"&%	c #7D8209",
"&&	c #1F080C",
"&*	c #090101",
"&=	c #190903",
"&-	c #1C0900",
"&;	c #150505",
"&>	c #070102",
"&,	c #090002",
"&'	c #0A0E02",
"&)	c #0F0904",
"&!	c #030402",
"&~	c #0F0F0B",
"&{	c #3B3910",
"&]	c #524C01",
"&^	c #5D5A11",
"&/	c #4C520A",
"&(	c #05030E",
"&_	c #000104",
"&:	c #000109",
"&<	c #010211",
"&[	c #000207",
"&}	c #000409",
"&|	c #010508",
"&1	c #A06603",
"&2	c #444E09",
"&3	c #6D6607",
"&4	c #5C431A",
"&5	c #2C2513",
"&6	c #110E0C",
"&7	c #0A0705",
"&8	c #6A4D08",
"&9	c #825E04",
"&0	c #636300",
"&a	c #727204",
"&b	c #1A070B",
"&c	c #120502",
"&d	c #1B0901",
"&e	c #110600",
"&f	c #0F0604",
"&g	c #070001",
"&h	c #0A0002",
"&i	c #020202",
"&j	c #050506",
"&k	c #25221C",
"&l	c #25190A",
"&m	c #0D0E05",
"&n	c #291A02",
"&o	c #000106",
"&p	c #000003",
"&q	c #000005",
"&r	c #04040D",
"&s	c #02020D",
"&t	c #8D6909",
"&u	c #44351A",
"&v	c #02020A",
"&w	c #000001",
"&x	c #0B0805",
"&y	c #040302",
"&z	c #69460B",
"&A	c #6E5603",
"&B	c #474500",
"&C	c #666200",
"&D	c #140509",
"&E	c #1B0800",
"&F	c #070401",
"&G	c #120102",
"&H	c #080001",
"&I	c #040102",
"&J	c #010203",
"&K	c #020303",
"&L	c #151416",
"&M	c #0F0909",
"&N	c #00020E",
"&O	c #000100",
"&P	c #02050C",
"&Q	c #665C01",
"&R	c #29321C",
"&S	c #070101",
"&T	c #110B06",
"&U	c #4C4118",
"&V	c #544113",
"&W	c #3B3A10",
"&X	c #4D4016",
"&Y	c #0C0306",
"&Z	c #150802",
"&`	c #110500",
"* 	c #030301",
"*.	c #160100",
"*+	c #060000",
"*@	c #020305",
"*#	c #040706",
"*$	c #050609",
"*%	c #0C0C0D",
"*&	c #20180F",
"**	c #070305",
"*=	c #0A0304",
"*-	c #010106",
"*;	c #01010B",
"*>	c #010510",
"*,	c #010004",
"*'	c #00030E",
"*)	c #020416",
"*!	c #000103",
"*~	c #0C0002",
"*{	c #1A0B06",
"*]	c #212412",
"*^	c #21190D",
"*/	c #19180B",
"*(	c #1F170F",
"*_	c #030102",
"*:	c #070200",
"*<	c #0B0001",
"*[	c #020406",
"*}	c #0B0B13",
"*|	c #150D08",
"*1	c #040303",
"*2	c #221C1A",
"*3	c #0F0105",
"*4	c #0C0708",
"*5	c #000108",
"*6	c #00050A",
"*7	c #000006",
"*8	c #00030A",
"*9	c #03080D",
"*0	c #00020D",
"*a	c #140804",
"*b	c #10110A",
"*c	c #0B0905",
"*d	c #100500",
"*e	c #040101",
"*f	c #000101",
"*g	c #040407",
"*h	c #080203",
"*i	c #060505",
"*j	c #090706",
"*k	c #080101",
"*l	c #101316",
"*m	c #000102",
"*n	c #01030E",
"*o	c #000004",
"*p	c #020409",
"*q	c #0A0402",
"*r	c #0D0C08",
"*s	c #110E08",
"*t	c #150501",
"*u	c #0D0602",
"*v	c #050001",
"*w	c #090100",
"*x	c #100205",
"*y	c #030408",
"*z	c #00030B",
"*A	c #000107",
"*B	c #010105",
"*C	c #000309",
"*D	c #090805",
"*E	c #121008",
"*F	c #060602",
"*G	c #1A0502",
"*H	c #0E0600",
"*I	c #0B0A07",
"*J	c #100505",
"*K	c #140801",
"*L	c #010200",
"*M	c #0B0102",
"*N	c #0B0104",
"*O	c #110202",
"*P	c #150302",
"*Q	c #190B00",
"*R	c #100E0A",
"*S	c #090302",
"*T	c #080404",
"*U	c #1A0800",
"*V	c #0E0000",
"*W	c #0C0200",
"*X	c #0E0500",
"*Y	c #1E0D00",
"*Z	c #060301",
"*`	c #090300",
"= 	c #160900",
"=.	c #130700",
"=+	c #130A03",
"=@	c #120901",
"=#	c #190C00",
"=$	c #1D0F04",
"=%	c #190F01",
"=&	c #262626",
"=*	c #282828",
"==	c #101010",
"=-	c #140A00",
"=;	c #1E0E04",
"=>	c #180C01",
"=,	c #1D1D17",
"='	c #0D0D05",
"=)	c #0C0C06",
"=!	c #242419",
"=~	c #1A1B17",
"={	c #0F0800",
"=]	c #130802",
"=^	c #150801",
"=/	c #080700",
"=(	c #0D0D01",
"=_	c #2A2A19",
"=:	c #0A0600",
"=<	c #080301",
"=[	c #060600",
"=}	c #0B0B04",
"=|	c #191800",
"=1	c #0A0500",
"=2	c #0E0401",
"=3	c #070700",
"=4	c #050503",
"=5	c #060604",
"=6	c #0C0B03",
"=7	c #171600",
"=8	c #080800",
"=9	c #090200",
"=0	c #100400",
"=a	c #150502",
"=b	c #080808",
"=c	c #25241C",
"=d	c #170800",
"=e	c #1C0602",
"=f	c #090900",
"=g	c #0A0A00",
"=h	c #141400",
"=i	c #160700",
"=j	c #1D0B00",
"=k	c #180602",
"=l	c #070704",
"=m	c #1D0A00",
"=n	c #130501",
"=o	c #230C00",
"=p	c #100600",
"=q	c #100D0A",
"=r	c #0F0300",
"=s	c #0B0300",
"=t	c #210C00",
"=u	c #1C0B01",
"=v	c #000404",
"=w	c #000406",
"=x	c #0A0B09",
"=y	c #0A0906",
"=z	c #0B0803",
"=A	c #0E0801",
"=B	c #180E01",
"=C	c #1F1400",
"=D	c #1D1201",
"=E	c #040201",
"=F	c #0A0602",
"=G	c #110D02",
"=H	c #151102",
"=I	c #171104",
"=J	c #1A1106",
"=K	c #1B1007",
"=L	c #130E04",
"=M	c #0D0A01",
"=N	c #040400",
"=O	c #050400",
"=P	c #070500",
"=Q	c #090501",
"=R	c #0D0601",
"=S	c #120801",
"=T	c #170901",
"=U	c #0C0401",
"=V	c #0B0401",
"=W	c #060502",
"=X	c #0C0A02",
"=Y	c #0C0A01",
"=Z	c #070600",
"=`	c #020200",
"- 	c #040300",
"-.	c #050500",
"-+	c #080901",
"-@	c #0A0B03",
"-#	c #0B0C04",
"-$	c #0A0A03",
"-%	c #070602",
" . . . . . . . . . . . . . . . . . . . . . . . . . . . . . . . . . . . . . . . . . . . . . . . .",
" . . . . . . . . . . . . . . . . . . . . . . . . . . . . . . . . . . . . . . . . . . . . . . . .",
" . . . + @ # $ % . . . . . . . . . % & * = - ; > . . % % . . . . . . . % & , ' ) ! ~ { ! ] . . .",
" . . . % . . . . . . . . . . . . ^ / ( _ : < [ } | 1 2 3 4 5 6 7 8 . . . . . . % 9 % % & & 0 . .",
" . . . ) a b c d e f g h i j k l m n o p q r s t u v w x y z A B C D E F G H I J K L M N & , . .",
" . . O P Q R S T U V W X Y Z ` . . . % ^ % . . . . . . . . . . . &. ...+.@.#.$.%.&.*.=.-.; & . .",
" . ..>.,.'.).!.~.{.].^.^./.( % % % %.(._.( . . &.:.<.[.}.|.1.^ ..2.3.4.5.6.7 . 9.8.9.8.0 > % . .",
" . ..a.b.c.d.e.f.g.h.i.j.k.l.m.n.o.p.q . . % 9 . . . . . . . . % . ..r.s.t.u.v.w.x.y.z.A.B . . .",
" . ..C.D.E.F.G.H.I.J.K.L.M.N.O.P.Q.R.S.T.U.V.W.X.Y.Z.`+ +.+++@+#+$+%+&+*+=+-+;+>+, |+'+) ; . . .",
" . .+!+~+{+]+^+/+(+_+:+<+[+}+|+1+2+3+4+5+6+7+8+9+0+a+b+c+d+e+f+g+h+i+j+k+l+m+n+o+p+q+r+s - . . .",
" . .+t+u+v+w+x+y+z+A+B+C+D+E+F+G+H+I+J+K+L+M+N+O+P+Q+R+S+T+U+V+W+X+Y+Z+`@ @.@+@@@#@$@%@& = . . .",
" . . %@*@=@-@;@>@,@'@)@!@~@{@]@^@/@(@_@:@<@[@}@|@1@2@3@4@5 . % & & . . . .@6@7@8@9@0@a@b > . . .",
" . . %@c@d@e@f@g@h@i@j@k@l@m@n@o@p@q@r@s@t@u@v@w@x@y@z@A@B@C@D@E@F@G@H@I .@J@K@L@M@N@O@P & . . .",
" . . %@Q@R@S@T@U@V@W@X@Y@Z@`# #.#+#@###$#%#&#*#=#-#;#>#,#'#)#!#~#{#]#^ . &#/#(#_#:#<#[#} . . . .",
" . . &#|#1#2#3#4#5#6#7#8#9#0#a#b#c#d#e#f#g#h#i#j#k#l#m#n#o#p#q#r#s+f#t .#u .#v#w#x#y#z#A . . . .",
" . . ,#B#C#D#E#F#G#H#I#J#K#L#M#N#O#P#Q#R#S.(#T#U#V#W#X.*#Y#Z#`$ $.$+$@ .@2 .$#$$$%$&$*$= . . . .",
" . . &$-$;$>$,$'$)$!$~${$]$^$/$($_$:$<$[$}$|$1$2$3$4 .$5$6$7$8$9$0$a$b . &$c$d$e$f$g$h$i . % . .",
" . .$c$j$k$l$m$n$o$p$q$r$s$t$u$v$w$x$y$z$A . .$B$C .$D$E$F$G$H$I$J$K$L . .$c$M$N$O$P$Q$R . ] . .",
" . . % &$S$T$U$V$W$X$Y$Z$`% %.%+%@%#%$%%%&%*%=%-%;%>%,%'%)%!%~%{%]%^%/ .@2 .%(%_%:%<%[%} .%| . .",
" . . % 8%1%2%3.:%4%5%6%7 .%8%9%0%a%b%c%d%e%f%g%h%i%j%k%l%m%n%o%p%q%r%s 9%t 9%u%v%w%x%y%z .%A . .",
" . . %%B%C%D%E%F %%G%H%I ../%J%K%L%M%N%O$B%P%Q%R%S%T%U%V%W%X%Y%Z%`&  . 9%t&.&+&@&#&$&%&&&*&= . .",
" . . .&-./&;&>&,.;&'&)&! . .&~&{&]&^&/&(&_&:&<&:&[ .&}&|&1&2&3&4&5&6 . 9 *&7@5&8&9&0&a&b&c&d . .",
" . . ,&e .&f&g&h.;%  % . .&i&j&k&l&m&n&o&p .&p . .&q&r&s&t&u&v&w .&w . .%F&x&y&z&A&B&C&D.C&E . .",
" . . ' @.q&F&G&H %&I.( .&J#X&K&L&M %.9&w&N&w .&O . .._&P&Q&R&o&p . . & .&S&T.q&U&V&W&X&Y&Z&` . .",
" . . # &*  .*.*+ % ../ .*@*#*$*%*&***=$n*-*;*> .*,*'&w . .&_ .*)*! . . .*~*{.8*]*^*/*(*_&e*: . .",
" . . , . 9 .*< 0 % . . %*[ .*} .*|*1*2 .*3 .*4 .*5*6*7*8*9&:&_*0 .._ . .&S*a&y*b*c 9.q .*d % . .",
" . . . . . . .*e . ..: %&J*f*g ..;*h ^$c*i*j*k*l*m*n .&w*o .&_*p._ . . . .*q*i*r*s 9 Y %*t % . .",
" . .$c . .&y %%F$j ,*u ../*f.|*v*w*x#u % ,*~.;*y*o&:&w._ .*z*A*B*C . . . .@3*1*D*E.q*F &*G % . .",
" . .*H . .*I &%t*J $*K %*L.(./ % .*M =*N*O . . . . . . . . . . . . . . . . . . . . . . .*P@2 . .",
" . .*Q . .*R*e*S*T .*U &&O#T . . . .*V > > . . . . . . . . . . . . . . . . . . . . . . .*W*X . .",
" . .*Y*Z*` . . . . . . . . . . . . % . . . . . . . . . . . . . . . . . . . . . . . . . . &=  . .",
" . .=.=+=@ . . . . . . . . . . . . . % . . . . . . . . . . . . . . . . . . . . . . . . . .=# . .",
" . .*`=$=% . . . . . . . . . . . .=&=*== . . . . . . . . . . . . . . . . . . . . . . . . .=- . .",
" . . %=;=> . . . . . . . . . . .=,='=)=!=~ . . . . . . . . . . . . . . . . . . . . . . . .={ . .",
" . . .=]=^ . . . . . . . . . . .=/ 9 .=(=_ . . . . . . . . . . . . . . . . . . . . . . . .=: . .",
" . . .=<%B . . . . . . . . . . .=[ . .=}=| . . . . . . . . . . . . . . . . . . . . . . . %=1 . .",
" . . . .=2 . . . . . . . . . . .=3=4=5=6=7 . . . . . . . . . . . . . . . . . . . . . . .$c @ . .",
" . . % #*` . . . . . . . . . . .=8 . . . . . . . . . . . . . . . . . . . . . . . . . . . , ) . .",
" . .=9=2 $ . . . . . . . . . . .=[ . . . . . . . . . . . . . . . . . . . . . . . . . . .$c*: . .",
" . .=0=a . . . . . . . . . . . .=3.q&i=b=c . . . . . . . . . . . . . . . . . . . . . . . % ~ . .",
" . .=d=e . . . . . . . . . . . .=f=8=g=h=3 . . . . . . . . . . . . . . . . . . . . . . . .=i . .",
" . .=j=k . . . . . . . . . . . . % . % %=l . . . . . . . . . . . . . . . . . . . . . . . .=m . .",
" . .=d=n . . . . . . . . . . . . . . . ..1 . . . . . . . . . . . . . . . . . . . . . . . .=o . .",
" . .=p { . . . . . . . . . . . . . . . .=q*Z . & # # & . . . . '+t=r=s*`.<.<@2.;.; & & % .=t . .",
" . . +*` $ . . . . . . . . . . . . . . . . . . . . . . . . . .$c # +*` ' , % & ,.: '.: ,$c=u . .",
" . . # . . . . . % . . . ..:*:.;&w=v=w=x=y=z=A=B=C=D$W=E ^=F=G=H=I=J=K=L=M=3=N=O=P.2=Q=R=S=T . .",
" . . % %*e.< ]=U=V=<.: . . . . . . . . 9=W=X=Y=Z=` . . . 9- -.=3-+-@-#-$-%.9 . . . . . . . . . .",
" . . . . . . . . . . . . . . . . . . . . . . . . . . . . . . . . . . . . . . . . . . . . . . . ."};
