/* XPM */
static char *gE_icon[] = {
/* width height num_colors chars_per_pixel */
"    50    50      248            2",
/* colors */
".. c #000000",
".# c #808490",
".a c #883438",
".b c #b0c0f8",
".c c #c088a8",
".d c #384050",
".e c #98a4a8",
".f c #806868",
".g c #4850a0",
".h c #a08080",
".i c #606ca8",
".j c #c06080",
".k c #7884e8",
".l c #d0e4f8",
".m c #8890e0",
".n c #606cd8",
".o c #a85c88",
".p c #581818",
".q c #b8acb0",
".r c #f05c60",
".s c #c83c40",
".t c #505cb8",
".u c #8884d0",
".v c #f8c0c0",
".w c #a8b4e0",
".x c #182048",
".y c #b06c70",
".z c #6874e0",
".A c #e08080",
".B c #e0f4f8",
".C c #6874d0",
".D c #9884d0",
".E c #808ce8",
".F c #90a0f8",
".G c #9098e8",
".H c #5864d0",
".I c #9894e0",
".J c #585c88",
".K c #e07478",
".L c #787ce0",
".M c #904448",
".N c #c07070",
".O c #a870a8",
".P c #704440",
".Q c #e84448",
".R c #a8a4e8",
".S c #c0d0f8",
".T c #6064b8",
".U c #6874f0",
".V c #f8a4a8",
".W c #d8d0e8",
".X c #404470",
".Y c #4854a0",
".Z c #6068c8",
".0 c #8084e0",
".1 c #f8e4e8",
".2 c #f09098",
".3 c #280c08",
".4 c #9860a8",
".5 c #9094e8",
".6 c #505cc8",
".7 c #a0acf8",
".8 c #a884c0",
".9 c #c07898",
"#. c #a078c0",
"## c #8074b0",
"#a c #c09090",
"#b c #483438",
"#c c #e86470",
"#d c #9088e8",
"#e c #707ce0",
"#f c #f8f0f0",
"#g c #6870c8",
"#h c #101018",
"#i c #7080f8",
"#j c #a068a8",
"#k c #382828",
"#l c #787cd0",
"#m c #c04458",
"#n c #5058c0",
"#o c #c84858",
"#p c #b0bcf8",
"#q c #202850",
"#r c #7888f8",
"#s c #a0a4f8",
"#t c #f0d0d0",
"#u c #b03438",
"#v c #c0ccf8",
"#w c #504040",
"#x c #d8ecf8",
"#y c #8090f8",
"#z c #b8b0e8",
"#A c #7078e0",
"#B c #f88088",
"#C c #707cd0",
"#D c #a890d0",
"#E c #f07880",
"#F c #e85458",
"#G c #c8d8f8",
"#H c #686cc8",
"#I c #9870c0",
"#J c #b85068",
"#K c #909ca8",
"#L c #6070f8",
"#M c #f86068",
"#N c #5864b8",
"#O c #7078d0",
"#P c #98a4f8",
"#Q c #8898f8",
"#R c #f8b4b8",
"#S c #5058a8",
"#T c #a88cd0",
"#U c #b078b0",
"#V c #b890c0",
"#W c #888cf0",
"#X c #c06880",
"#Y c #6870e0",
"#Z c #b86868",
"#0 c #682020",
"#1 c #f85c60",
"#2 c #5860b0",
"#3 c #f8c8c8",
"#4 c #b0b0d8",
"#5 c #a87878",
"#6 c #e8fcf8",
"#7 c #c87c80",
"#8 c #303850",
"#9 c #989490",
"a. c #505470",
"a# c #d88090",
"aa c #d8a8a8",
"ab c #707070",
"ac c #983838",
"ad c #301c20",
"ae c #a85458",
"af c #8084c0",
"ag c #a8a8a8",
"ah c #785858",
"ai c #100400",
"aj c #505450",
"ak c #a888b8",
"al c #602830",
"am c #d85868",
"an c #d87ca0",
"ao c #404c98",
"ap c #181c38",
"aq c #f07078",
"ar c #a03030",
"as c #d84048",
"at c #8890a8",
"au c #c0b8b8",
"av c #b86c98",
"aw c #887cd8",
"ax c #b0a0d0",
"ay c #c098c0",
"az c #404850",
"aA c #080c18",
"aB c #9068c0",
"aC c #b8bcf8",
"aD c #b098d0",
"aE c #987cd0",
"aF c #888ce0",
"aG c #989cf8",
"aH c #d07480",
"aI c #f84c50",
"aJ c #404490",
"aK c #a08cd0",
"aL c #a8acf8",
"aM c #f89ca0",
"aN c #f88890",
"aO c #683838",
"aP c #c05068",
"aQ c #d06468",
"aR c #b85c80",
"aS c #f8ece8",
"aT c #f8fcf8",
"aU c #f8acb0",
"aV c #c0c0e8",
"aW c #b06498",
"aX c #b84c68",
"aY c #f86470",
"aZ c #e0e4f8",
"a0 c #d0d4f8",
"a1 c #c03838",
"a2 c #f85058",
"a3 c #782020",
"a4 c #b0b4f8",
"a5 c #d8b0c0",
"a6 c #b88cb8",
"a7 c #6870a8",
"a8 c #c87478",
"a9 c #f87480",
"b. c #d09090",
"b# c #a8b0f8",
"ba c #5864e8",
"bb c #283050",
"bc c #c878b0",
"bd c #b05480",
"be c #b87478",
"bf c #707cf8",
"bg c #5864c0",
"bh c #101818",
"bi c #904040",
"bj c #7884a8",
"bk c #e88098",
"bl c #404870",
"bm c #a074c0",
"bn c #9094f8",
"bo c #202440",
"bp c #a098e8",
"bq c #c86c80",
"br c #d04c50",
"bs c #b08cc8",
"bt c #b87ca8",
"bu c #b07c88",
"bv c #e84c50",
"bw c #f8bcc0",
"bx c #8084f0",
"by c #909cc0",
"bz c #808cc0",
"bA c #b86080",
"bB c #908ce8",
"bC c #b05880",
"bD c #6064d0",
"bE c #7078f0",
"bF c #f89498",
"bG c #5860c0",
"bH c #a87cc0",
"bI c #503030",
"bJ c #f06868",
"bK c #181410",
"bL c #7884f8",
"bM c #282c50",
"bN c #808cf8",
"bO c #f8d0d0",
"bP c #8894f8",
"bQ c #c0b4e0",
"bR c #f87c88",
"bS c #f8d8d8",
"bT c #909cf8",
"bU c #180808",
"bV c #f86c70",
"bW c #c898c8",
"bX c #080400",
"bY c #b8c0f8",
"bZ c #404450",
"b0 c #4850b0",
"b1 c #6068b8",
/* pixels */
"#PaLb#aL.7#s#PaG#P#P.7aL#PbTbn#P#s.7b#b#.7#PaG#Pb#bY#v#pbTbnbPbPbPaG.7aL#pbY#p#pb#b##pbY#paL.7b#aC#p",
".G#PaLb#aL.7#P.GbTaG#P.7.7bTbPbT#P#s.7b#.7#PbT#Pb#bYbYa4bTbP#WbNbPbT.7b#aC#p#pb#aLa4bYaCaL.7aL#paCb#",
".m.5.GaLaL.7#s#PbTbTaG#PaL#PbPbP#P#P.7b#.7#PbT#P.8.9.ca4bP#d#IbNbn#P.7a4.b#pa4aLb##pbYaL#P.7#p#paL.7",
".m.m.5bT.7aL.7#PaGbPbTbH.8.8#.bm#.bH#TaLaL#PbT.O#o.sayb#bPbd.s#IbT#Pb##paC#pb#.7#pbYb##P.7a4#pb##s#s",
"aFbzaF.mbT.7.7#s#PbTbP#..s#obH#Ibm.sbp.7b##PbTbTbt.sbW.7bP#IbdbxaG#PaD#z#pb#.7b#bYa4#s.7b##paL#s#P#P",
".maF.E.EaFbn.7.7#sbTbnbB.saRb#bPbN.s.F.7b#.7bTbTbA.s#v.7bNbNbLbPbT.R#o#V#paLb#aC#p.7#Pb##paL#P#P#P#s",
".m.m.E.u.o#maP#U.8.8bTbm.saW#PbpaEbPbT#P.Rav#J#o#o.s.SaKbC#mbdbPbpaP.s.9bsbp#pbY.7#Pb#aCaL#P#P#P#s#s",
"bn.maFaX#m.0aw.sav.8#PaW.s#.#Pav#IbNbTbp#mbAbT.D.sbq.SaKbd.saBbT#D.s.sa6bs.RbYb#aGb##p.7#PaG#P#P.7.7",
".Gbn.D.s#j.kbx.sbmb#.7aR.sbdaR.saK#rbPaP#o#p.7.I.s#ca2aIaIaIaIaIaIaIaIaIaIa2aIaIaIaIaIaIa1###s.7aLb#",
"bT.Gbm.s#Ibx#j.sawbP.7#o.sbPbP.s.7bP#d.s.9bYb#bH.s#caI.s.s.s.s.s.s.s.s.s.s.s.s.s.s.s.s.s.pbl.7aLb#b#",
"bTbTbTaPaXaW#maBbLbLbP.s.jbT#y#..7b##I.sbs.S#v#U.sbVaI.s.s.s.s.sa1.s.s.sa1.s.s.sa1.sa1.sarbob#b#b#.7",
"bTbTbnbT#J#.#dbNbLbfaB.sbA.7bT#QaR#V.8.s.c#G.Sbq.s#BaI.sa1.s.s.s.s.s.s.s.s.s.s.s.s.s.s.s.s..a4b##PbT",
"bTbTbTbH.s#m.ObPbNbL.4.s.Ob#b##P.saxaV.s.sbqaQ#o.saYa2.s.s.s.s.s.s.s.s.s.s.s.s.s.s.s.s.sa1.3a7bT#Wbx",
"bnbTaWaR.O#m.s#o#d.ObdbdbdaRbq#X.j#p#Gaybqa8aSa5aH.raI.s.s.sa1.sa1.sa1.sa1.sa1.sa1.s.s.s.sa3bMbx.k.k",
"#sbT.sbHbTaG.O.saRbPbPbNbL#rb##G#v#p.S#6#v.BaTaTaTaNaI.s.sa1asa1.s.s.s.s.s.s.s.s.sa1.s.s.s#uaA.L#e#A",
"#pa4.saWbTbTbcaI#Fa2aIaIaIaIaIaIaIa2aIaIaIa2#0aTaT#BaI.sa1.sa1.s.sa1ar#0.p.p.p.p.p.p.p.p.p.p...n#e.k",
"#pbY.c#oam.r#1#1aI.Q.s.s.s.s.s.s.s.s.s.s.s.s..aTaTaNaI.sasa1.s.s.s.s.3adbZbZ#wbZbbbMbMbobobM#q.T.k.k",
"#p#paCbk#M#1as.s.s.s.s.s.sa1.sa1.sa1.s.sa1.s..aTaT#BaI.sa1.s.s.s.s.sa3.qaT#f.S#s#WbEbEbEbfbLbLbNbNbN",
".7b#bW#MaI.s.s.s.s.sa1.s.s.s.s.s.s.s.s.s.s.s..aTaTaNaI.s.s.s.s.s.sa1#u#u.Qa2aIaIaIaIaIaI.Qal#WbPbPbT",
"bn#s#c#1asasasasasasasasasasasasasasasasasas..aTaTaNaIasasasasasasasasasasasasasasasasasbU.X#P#P.7#P",
"#eaE#Ma2bv.QaI.Qbv.Q.QaI.Q.QaI.Q.QaI.Q.Qbvbv..aTaTbF#M.Q.Q.QaI.Q.Q.QaIbvaIbvbvbvbvbvbvbv..a7bTbPbN.L",
"bx#Ua9#F#F#F#Fama2#F#Fbr.a#o#F#F#F#F#F#Fa2#F..aTaTbFaY#F#Fa2bva2#Fa2#F#F#F#Fa2#F#Fa2#Fac..bL.UbLbLbN",
"bPanbR.r.r.r.r.r.r.rbX..bh.f#o.r.r.r.r.r.r.r..aTaTaMbR.r.r#c.r#c.r.r.r.r.r.ram.r.r.r.raibbb##pbY#v#v",
"bLan#BbJbJ#cbJbJ#cbi...w#v.SbJ#cbJ#cbJ#c#c#c..aTaT.V#BbJ#cbJ#c#cbJ#c#c#c#cbJbJbJbJ#c#c..bj#pb##PbTbT",
".kbcbRaqaqaqaqaqaqalbbb#.b#GbRaqaqaqaqaqaqaq..aTaTaUaNa9aqaqbVaqaqaqa9aqaqaqaqaqaqaq.M..bPbNbNbNbNbx",
"bPbs#BbR#EbRaqbR#Eae.d.l#xaTaN#EbR#Ea9#Ea9#E..aTaTaUaM#EaqbR#E#EbRaqaO................bbbPbP#ybNbNbL",
"bN.D#B#B#B#B#B#B#B.K...b.S#xbF#B#B#B#B#B#B#B..aTaT#R.V#B#B#B#B#B#B#B..abagagagag.e#Katby#p#pb#.7#P#P",
"bLbNa##BaNaNaNaNaNaNbI.#.BaTbFaNaNaNaNaNaNaN..aTaTbwaUaNaNaNaNaNaNaNaOau#x#x.l#G#G.SbY.b#pb#b#b#aL.7",
"bPbTa6.A.2bFbF.2bFbFa8.P.q#6#3bF.2bF.2bF.2bF..aTaT.vbwbFbFbF.2bFbF.2.N#Z.2aMaMaMbFaMaMaMaMaMbFbIaFbT",
"bPbP.5#7.2aMaMaMaMaMaM#7.ybObSaMaMaMaMaMaMaM..aTaT#3#3aMaMaMaMaMaMaMaMaMaMaMaMaMaMaMaMaMaMaMadap#rbN",
"bNbPbPakbe.V.V.V.V.V.V.V.V.V.V.V.V.V.V.V.V.V..aTaT#3bO.V.V.V.V.V.V.V.V.V.V.V.V.V.V.V.V.V.V.V...XbN.k",
".EbNbP.mbub.aUaUaUaUaUaUaUaUaUaUaUaUaUaUaUaU..aTaTbObS.VaUaUaUaUaUaUaUaUaUaUaUaUaUaUaUaUaUaU..#ObTbP",
"bNbPbPbT.uahb.#R#R#R#R#R#R#R#R#R#R#R#R#R#R#R..aTaTbSaS#R#R#R#R#R#R#R#R#R#R#R#R#R#R#R#R#R#Rah..bNbPbN",
"#WbNbNbLbx#2#b#5.v.v.v.v.v.v.v.v.v.v.v.v.v.v..aTaTbS#f.v.v.v.v.v.v.v.v.v.v.v.v.v.v.v.v.v.v...x.n#Y.k",
".L#A#A.z#Y#Y#SaA#k#a#3#3#3#3#3#3#3#3#3#3#3#3..aTaT.1aT#3#3#3#3#3#3#3#3#3#3#3#3#3#3#3#3#3#3..aJ.6#n.6",
"#g.Z.ZbD.nbfbP.7.Jbh......#waabObObObObObObO..aTaT#t.hbKbKbKbKbKbKbKbKbKbKbKbKbKbKbKbKbK....#A.zbD.6",
"bGbgbg.zbL#PbTbT#Q.7#p#paLa0aTbSbSbSbSbSbSbS..aT.B.eaj.dazajbZazazaj#8bZajajaj.dbbbbbbbb#8a.#PbP.k#g",
"bG.Z.LaZaT.1.1.1.1aSaTaTaTaTaT.1.1.1.1.1.1.1..#x.l.SaT.S#v.l#x#p#v#G#G.F#p.BaT.BbYbTbLbNbNbT#P.7bT.E",
".C.EbNbQ.1aSaSaSaSaSaSaSaSaSaSaSaSaSaSaSaSaS...S.S.baT.lb#.b.B.7b##p.S#p#Qb##GaT.lbYbTbfbLbLbNbPaGbT",
".k.k#l.IbS#f#f#f#f#f#f#f#f#f#f#f#f#f#f#faSaj...b.b#paT.B#Q#p#v.b.F.7.7#v#PbP.7.S#6#GbYbT#e#A#A#Cbx.E",
"#O#g#A.k.1#faTaTaTaTaTaTaTaTaTaTaTaTaTaTaT...d.7#p.7aT#6#r.7b#.S#y#Q#P.7#pbNbN#PaV#x.SaCbT#e#Y#g#g#A",
"#g#O#l.E.W#faTaTaTaTaTaTaTaTaTaTaTaTaTaTaj..bz.F.7.F.BaT#i#Q.F#p.FbN#Q#Q.7#PbLbNbT#pa0bYb#bT.L.Z.Z.Z",
"#g#C#C#H#4aTaTaTaTaTaTaTaTaTaTaTaTaTaT#h...d.7#Q#P#Q#G.BbL#rbT.7.7bfbNbPbP.7bP.UbLbPb#.SaC.7bT.Lb1.T",
"#O#gbg#Saf#9............................a.b#bTbP#QbN.S.lbNbfbN#Qb##rbf#rbNbP#PbL#Ybf#W#PbYb##sbP#Cb1",
".T.t.gbGb1bobo.xbobMbbbbbbbbbo.x#qbb.i.m#p#PbPbNbP#rbY.SbP#L#rbNbTbP.UbEbLbLbPbP#A.n#A.EbTa4b##P.m.L",
".Y.g#Sb1#g.Zbg#g.LbNbTbTbNbE.H.zbLbPbT.7.7bT#rbLbNbLb##vbTbabfbLbP.FbE#YbEbf.LbN.E.n.Z#g.kbP.7#P.G.E",
"ao#S#2b1#N#2.T.C.k.EbPbN#ebD.H.zbLbPbT#P#PbNbLbLbLbE.7bY#P.H#YbEbLbPbL.H#Y.z.z.L#r#ObgbG#H#O.E#PaG.m",
".g#2#N#2#S#2.Z#C.0bN.0.k.Z#n.Z.zbNbNbPbTbPbL.UbEbf.UbT#p#P.Hba.zbEbLbN.Z.Z.n#Y#g#A.k#H.t#2b1.C.0.5.G",
"#S#2#S#S#S.T.C#O.k.k#O.Z#n.6.Z.z.kbN#WbTbNbf.z.z.z#YbP.7.7bD.6#Y#Y#ebN#Y.6bg.Z.Z#g#O.C.Tb0#2#2a7#CaF",
".Y.Y.g.g#2b1.C#C#l#O#H.tb0.t.Z#A.L.kbNbP.k.z.Z#Y#Y.nbN#s.7bD#n.H.Z#g.L.CbG.tbG.Tbg.Z.C.Z#S.g#S#2b1#O"
};
