/* XPM */
static char * gedit_icon_xpm[] = {
"48 48 859 2",
"  	c None",
". 	c #939395",
"+ 	c #8A8A8C",
"@ 	c #8E8E90",
"# 	c #AEAEB0",
"$ 	c #A9A9AB",
"% 	c #A8A8A9",
"& 	c #B5B4B5",
"* 	c #B7B5B5",
"= 	c #B4B2B3",
"- 	c #B6B4B4",
"; 	c #BEBCBB",
"> 	c #BEBCBC",
", 	c #C1BFBE",
"' 	c #C3C1C1",
") 	c #D3D1D1",
"! 	c #D4D1D1",
"~ 	c #D3D1CF",
"{ 	c #CECCCB",
"] 	c #CCC9C7",
"^ 	c #C5C3C4",
"/ 	c #C1BFBF",
"( 	c #6E6967",
"_ 	c #615853",
": 	c #7C7C7D",
"< 	c #808081",
"[ 	c #848485",
"} 	c #8B8B8C",
"| 	c #A8A8AA",
"1 	c #9E9EA0",
"2 	c #B0B0B2",
"3 	c #D8D7D9",
"4 	c #E5E5E6",
"5 	c #EEEEF0",
"6 	c #F1F1F3",
"7 	c #F2F2F4",
"8 	c #D9D8D9",
"9 	c #655953",
"0 	c #76665C",
"a 	c #75655B",
"b 	c #4C4542",
"c 	c #8D8B8A",
"d 	c #9B9A9A",
"e 	c #ACAAAB",
"f 	c #C1C1C3",
"g 	c #C0C0C2",
"h 	c #D7D6D7",
"i 	c #EEEDEF",
"j 	c #EFEFF1",
"k 	c #EBEBED",
"l 	c #E5E5E7",
"m 	c #D7D7D9",
"n 	c #D7D6D8",
"o 	c #DCDCDE",
"p 	c #D2D2D4",
"q 	c #CFCFD1",
"r 	c #D1D0D2",
"s 	c #C9C9CA",
"t 	c #BEBDBF",
"u 	c #BDBDBF",
"v 	c #B9B9BA",
"w 	c #B2B1B2",
"x 	c #AFAEAF",
"y 	c #A6A5A6",
"z 	c #A5A4A5",
"A 	c #9F9D9D",
"B 	c #D1D1D3",
"C 	c #B9B6B5",
"D 	c #73645A",
"E 	c #78685F",
"F 	c #56504E",
"G 	c #979697",
"H 	c #F1F1F2",
"I 	c #EAEAEC",
"J 	c #E9E9EB",
"K 	c #DBDADB",
"L 	c #C0BEBF",
"M 	c #B8B6B7",
"N 	c #BBB8B7",
"O 	c #AFAAA8",
"P 	c #9A9693",
"Q 	c #7B7673",
"R 	c #86807D",
"S 	c #7C7672",
"T 	c #79726D",
"U 	c #78716C",
"V 	c #78726D",
"W 	c #78726E",
"X 	c #87827D",
"Y 	c #88827E",
"Z 	c #8D8884",
"` 	c #8E8A86",
" .	c #9A9490",
"..	c #938D89",
"+.	c #8F8A87",
"@.	c #8F8B87",
"#.	c #938E8A",
"$.	c #918C89",
"%.	c #8E8986",
"&.	c #908B86",
"*.	c #8B8581",
"=.	c #827C79",
"-.	c #8C8785",
";.	c #8E837C",
">.	c #3B3837",
",.	c #AFAFB0",
"'.	c #A29D9A",
").	c #948E8A",
"!.	c #8E8885",
"~.	c #736F6C",
"{.	c #6F6A67",
"].	c #756F6B",
"^.	c #736E6A",
"/.	c #78726F",
"(.	c #7D7875",
"_.	c #888482",
":.	c #908C8A",
"<.	c #A9A5A3",
"[.	c #AFADAC",
"}.	c #C0BEBD",
"|.	c #D6D5D2",
"1.	c #D7D5D2",
"2.	c #DFDEDB",
"3.	c #E5E5E2",
"4.	c #EAE9E7",
"5.	c #EBEBE9",
"6.	c #EDEDEB",
"7.	c #EEEEEC",
"8.	c #EEEEED",
"9.	c #A5A3A3",
"0.	c #CECECF",
"a.	c #7C7572",
"b.	c #837A75",
"c.	c #C0C0C1",
"d.	c #C5C4C5",
"e.	c #939190",
"f.	c #C4C2C2",
"g.	c #BAB9B9",
"h.	c #B6B5B6",
"i.	c #BAB9BA",
"j.	c #CCCCCD",
"k.	c #E4E3E4",
"l.	c #EAE8EA",
"m.	c #E9E7E9",
"n.	c #EBE8EA",
"o.	c #EFECEE",
"p.	c #F1EFF1",
"q.	c #ECECEE",
"r.	c #ECECED",
"s.	c #EBEBEC",
"t.	c #EDEDEE",
"u.	c #F0F0F2",
"v.	c #EAEAEB",
"w.	c #D6D6D8",
"x.	c #DEDEE0",
"y.	c #E0E0E2",
"z.	c #DBDBDD",
"A.	c #E0E0DF",
"B.	c #E0DFDD",
"C.	c #9E9D9E",
"D.	c #685E58",
"E.	c #6A6360",
"F.	c #CCCCCE",
"G.	c #B4B4B5",
"H.	c #B19D9C",
"I.	c #A96666",
"J.	c #AB595A",
"K.	c #A54E4E",
"L.	c #A44B4C",
"M.	c #9E3F3F",
"N.	c #A65051",
"O.	c #DEC6C7",
"P.	c #F1F0F2",
"Q.	c #CECED0",
"R.	c #CACACB",
"S.	c #CFCED0",
"T.	c #D4D4D6",
"U.	c #C2C2C4",
"V.	c #CBCBCD",
"W.	c #D5D5D7",
"X.	c #C8C8CA",
"Y.	c #C6C6C8",
"Z.	c #DDDDDE",
"`.	c #989799",
" +	c #BFBEC0",
".+	c #6D5F56",
"++	c #6D6866",
"@+	c #D9D8DA",
"#+	c #A9A8A9",
"$+	c #B69E9D",
"%+	c #993434",
"&+	c #993333",
"*+	c #A65253",
"=+	c #A7A6A7",
"-+	c #7B6B62",
";+	c #78685E",
">+	c #666462",
",+	c #E7E6E8",
"'+	c #A5A5A6",
")+	c #A47776",
"!+	c #B26767",
"~+	c #E8E8EA",
"{+	c #A3A3A5",
"]+	c #EFEEF0",
"^+	c #B7B7B8",
"/+	c #9C9795",
"(+	c #83756C",
"_+	c #595959",
":+	c #8E8E8E",
"<+	c #A87676",
"[+	c #A44949",
"}+	c #A54B4C",
"|+	c #A24646",
"1+	c #A44A4A",
"2+	c #9F3F3F",
"3+	c #A64E4E",
"4+	c #9C3A3A",
"5+	c #9A3435",
"6+	c #A34849",
"7+	c #9F4040",
"8+	c #B57171",
"9+	c #D8BABB",
"0+	c #B1B1B3",
"a+	c #BEBEC0",
"b+	c #A8A7A9",
"c+	c #353537",
"d+	c #232325",
"e+	c #848385",
"f+	c #9A999B",
"g+	c #C0BFC1",
"h+	c #343335",
"i+	c #131315",
"j+	c #D9D9DB",
"k+	c #A1A0A2",
"l+	c #ACA39E",
"m+	c #887B74",
"n+	c #3C3B3B",
"o+	c #979696",
"p+	c #807F7F",
"q+	c #A6706F",
"r+	c #C38C8D",
"s+	c #EDEDEF",
"t+	c #18181A",
"u+	c #222224",
"v+	c #636364",
"w+	c #3A3A3C",
"x+	c #424244",
"y+	c #020204",
"z+	c #CDCDCF",
"A+	c #EFEFF0",
"B+	c #B5B4B6",
"C+	c #A0958F",
"D+	c #79706B",
"E+	c #282827",
"F+	c #A4A3A4",
"G+	c #7E7D7C",
"H+	c #A06160",
"I+	c #CB9E9F",
"J+	c #242426",
"K+	c #49494B",
"L+	c #29292B",
"M+	c #2E2E2F",
"N+	c #333335",
"O+	c #0D0D0F",
"P+	c #E3E3E4",
"Q+	c #C7C7C9",
"R+	c #8D7F78",
"S+	c #726E6C",
"T+	c #252424",
"U+	c #949395",
"V+	c #898988",
"W+	c #A15555",
"X+	c #993838",
"Y+	c #D0AEAF",
"Z+	c #1F1F21",
"`+	c #6D6D6F",
" @	c #E4E4E6",
".@	c #060608",
"+@	c #C4C3C5",
"@@	c #D3D3D5",
"#@	c #C2C0C1",
"$@	c #74655C",
"%@	c #7B6C62",
"&@	c #636161",
"*@	c #262626",
"=@	c #929293",
"-@	c #A29A99",
";@	c #A85657",
">@	c #9C3939",
",@	c #A74F4F",
"'@	c #9D3B3B",
")@	c #A34748",
"!@	c #A54C4D",
"~@	c #A24545",
"{@	c #A64F4F",
"]@	c #A14444",
"^@	c #A95454",
"/@	c #C39091",
"(@	c #D9C3C4",
"_@	c #757577",
":@	c #5D5D5F",
"<@	c #6E6E70",
"[@	c #7B7B7D",
"}@	c #959597",
"|@	c #48484A",
"1@	c #5C5C5E",
"2@	c #0E0E10",
"3@	c #767678",
"4@	c #838385",
"5@	c #58585A",
"6@	c #3C3C3E",
"7@	c #525254",
"8@	c #4F4F51",
"9@	c #59595B",
"0@	c #969597",
"a@	c #8D8886",
"b@	c #343334",
"c@	c #B6B5B7",
"d@	c #C9C9CB",
"e@	c #AEADAD",
"f@	c #9F5151",
"g@	c #B46D6E",
"h@	c #DFC9CA",
"i@	c #EEEAEC",
"j@	c #E1CECF",
"k@	c #D8BCBD",
"l@	c #E3D1D2",
"m@	c #EDE7E9",
"n@	c #CCA2A3",
"o@	c #9A3535",
"p@	c #E3D6D7",
"q@	c #777778",
"r@	c #1B1B1D",
"s@	c #BFBFC0",
"t@	c #8B8B8D",
"u@	c #ACACAE",
"v@	c #0B0B0D",
"w@	c #8A8989",
"x@	c #747374",
"y@	c #B0AFB1",
"z@	c #646466",
"A@	c #4B4B4D",
"B@	c #08080A",
"C@	c #A4A4A6",
"D@	c #AFAFB1",
"E@	c #B2B1B3",
"F@	c #B0AFB0",
"G@	c #807A77",
"H@	c #958A84",
"I@	c #161517",
"J@	c #1F1F20",
"K@	c #D1D1D2",
"L@	c #B8B8B9",
"M@	c #B6B5B4",
"N@	c #9D5252",
"O@	c #B36B6C",
"P@	c #F0EEF0",
"Q@	c #EDE6E8",
"R@	c #C08788",
"S@	c #A04242",
"T@	c #D0A9AA",
"U@	c #EBE3E5",
"V@	c #A95656",
"W@	c #C8C4C6",
"X@	c #070709",
"Y@	c #89898B",
"Z@	c #242425",
"`@	c #454547",
" #	c #434345",
".#	c #8C8C8E",
"+#	c #030305",
"@#	c #4E4E50",
"##	c #1E1E20",
"$#	c #F2F1F3",
"%#	c #BDBCBD",
"&#	c #EAE9EB",
"*#	c #6F6661",
"=#	c #7F7773",
"-#	c #ABABAC",
";#	c #B8B6B4",
">#	c #9E4B4B",
",#	c #E7D9DB",
"'#	c #AE6061",
")#	c #A95455",
"!#	c #B26A6A",
"~#	c #AA5859",
"{#	c #8D8C8E",
"]#	c #989899",
"^#	c #2D2D2F",
"/#	c #2D2D2E",
"(#	c #666668",
"_#	c #9A9A9C",
":#	c #88888A",
"<#	c #161618",
"[#	c #B3B3B5",
"}#	c #B9B9BB",
"|#	c #272728",
"1#	c #39393B",
"2#	c #B1B1B2",
"3#	c #DFDEDF",
"4#	c #72645C",
"5#	c #807168",
"6#	c #6B6969",
"7#	c #9C9B9C",
"8#	c #BBB7B6",
"9#	c #9C4343",
"0#	c #B57071",
"a#	c #C48F90",
"b#	c #A04243",
"c#	c #DDC5C6",
"d#	c #515153",
"e#	c #202022",
"f#	c #8C8C8D",
"g#	c #838284",
"h#	c #6F6F71",
"i#	c #737273",
"j#	c #171719",
"k#	c #B8B8BA",
"l#	c #6C6C6E",
"m#	c #818183",
"n#	c #DADADC",
"o#	c #0A0A0C",
"p#	c #B0B0B1",
"q#	c #74645A",
"r#	c #958982",
"s#	c #4C4B4B",
"t#	c #040406",
"u#	c #9A9A9A",
"v#	c #C4BFBE",
"w#	c #9A3C3C",
"x#	c #CDA3A5",
"y#	c #E3D2D4",
"z#	c #9A3434",
"A#	c #B97D7D",
"B#	c #232324",
"C#	c #4D4D4F",
"D#	c #474648",
"E#	c #BFBFC1",
"F#	c #929294",
"G#	c #69696B",
"H#	c #A1A1A3",
"I#	c #A2A0A0",
"J#	c #77675E",
"K#	c #A19791",
"L#	c #252527",
"M#	c #080809",
"N#	c #969596",
"O#	c #D9D3D3",
"P#	c #9A3838",
"Q#	c #DABFC0",
"R#	c #E8DDDF",
"S#	c #BB7D7E",
"T#	c #E2D0D2",
"U#	c #BD8889",
"V#	c #545456",
"W#	c #C4C4C6",
"X#	c #C5C5C6",
"Y#	c #DFDFE1",
"Z#	c #1A1A1C",
"`#	c #9C9C9E",
" $	c #111012",
".$	c #373739",
"+$	c #9F9FA1",
"@$	c #C5C5C7",
"#$	c #3F3F41",
"$$	c #969291",
"%$	c #9F9894",
"&$	c #09090B",
"*$	c #0F0F0F",
"=$	c #8C8B8B",
"-$	c #D3BFBE",
";$	c #9D3C3C",
">$	c #C38D8E",
",$	c #A14545",
"'$	c #AC5C5C",
")$	c #E6D9DA",
"!$	c #CEA5A6",
"~$	c #C39394",
"{$	c #4F4F50",
"]$	c #E1E1E3",
"^$	c #464648",
"/$	c #E7E7E9",
"($	c #050507",
"_$	c #ADACAE",
":$	c #CACACC",
"<$	c #4D4D4E",
"[$	c #847D79",
"}$	c #101011",
"|$	c #19191A",
"1$	c #848282",
"2$	c #C29897",
"3$	c #A34747",
"4$	c #CDA3A4",
"5$	c #DFC9CB",
"6$	c #E1CED0",
"7$	c #D5B3B5",
"8$	c #A85353",
"9$	c #A34646",
"0$	c #C38E8F",
"a$	c #CDC1C3",
"b$	c #414142",
"c$	c #5C5C5D",
"d$	c #1D1D1E",
"e$	c #1D1D1F",
"f$	c #777678",
"g$	c #7F7E80",
"h$	c #7E7E80",
"i$	c #616162",
"j$	c #F3F3F4",
"k$	c #8A898B",
"l$	c #29292A",
"m$	c #9F9E9F",
"n$	c #EEEEEF",
"o$	c #655B55",
"p$	c #76716F",
"q$	c #262525",
"r$	c #969594",
"s$	c #D9BDBD",
"t$	c #C18889",
"u$	c #BE8384",
"v$	c #B97878",
"w$	c #B97777",
"x$	c #A65050",
"y$	c #DEC9CA",
"z$	c #E2E2E3",
"A$	c #CDCDCE",
"B$	c #868687",
"C$	c #79787A",
"D$	c #707071",
"E$	c #494849",
"F$	c #DCDBDD",
"G$	c #181718",
"H$	c #262627",
"I$	c #797878",
"J$	c #B6B6B7",
"K$	c #D0D0D1",
"L$	c #716258",
"M$	c #7E6F66",
"N$	c #636262",
"O$	c #303030",
"P$	c #BA8687",
"Q$	c #A54C4C",
"R$	c #C1898A",
"S$	c #E4D4D6",
"T$	c #D0AAAB",
"U$	c #C79697",
"V$	c #B16666",
"W$	c #9A3636",
"X$	c #9B3737",
"Y$	c #EAE2E4",
"Z$	c #F0EFF1",
"`$	c #DDDBDB",
" %	c #E0DDDC",
".%	c #ACA8A7",
"+%	c #8F827A",
"@%	c #4A4A4B",
"#%	c #535150",
"$%	c #989796",
"%%	c #BE9190",
"&%	c #D9BCBD",
"*%	c #B77273",
"=%	c #EEE9EB",
"-%	c #C89798",
";%	c #D6B6B7",
">%	c #DEC9CB",
",%	c #A7A7A8",
"'%	c #A4A3A5",
")%	c #F3F2F4",
"!%	c #B3B2B3",
"~%	c #98908C",
"{%	c #938881",
"]%	c #403F41",
"^%	c #0E0E0F",
"/%	c #615E5D",
"(%	c #686666",
"_%	c #989896",
":%	c #BB8C8C",
"<%	c #E4D7D9",
"[%	c #B16667",
"}%	c #CCA0A2",
"|%	c #BE8283",
"1%	c #9F4444",
"2%	c #D0D0D2",
"3%	c #B2B2B4",
"4%	c #AAAAAC",
"5%	c #E3E3E5",
"6%	c #A5A5A7",
"7%	c #D7D7D8",
"8%	c #857B75",
"9%	c #A79E99",
"0%	c #1E1E1F",
"a%	c #161617",
"b%	c #63605E",
"c%	c #D2D2D3",
"d%	c #A0A09F",
"e%	c #B07979",
"f%	c #E9DFE1",
"g%	c #A24546",
"h%	c #A44B4B",
"i%	c #A95757",
"j%	c #F0F0F1",
"k%	c #695F59",
"l%	c #A09B98",
"m%	c #2A2A2A",
"n%	c #6A6865",
"o%	c #656363",
"p%	c #B2B2B1",
"q%	c #A96A6A",
"r%	c #E2D7D8",
"s%	c #E3D3D4",
"t%	c #D1ABAC",
"u%	c #B26B6B",
"v%	c #ECEBEC",
"w%	c #E8E7E8",
"x%	c #6B615C",
"y%	c #7D7A78",
"z%	c #09080A",
"A%	c #3F3E3D",
"B%	c #74716F",
"C%	c #BBBAB9",
"D%	c #A45C5C",
"E%	c #CAA7A8",
"F%	c #E0CCCD",
"G%	c #E3D2D3",
"H%	c #BD8182",
"I%	c #EAE9EA",
"J%	c #CBCACB",
"K%	c #6E615A",
"L%	c #7A6B61",
"M%	c #706D6D",
"N%	c #4D4C4B",
"O%	c #777471",
"P%	c #BEBDBB",
"Q%	c #A55555",
"R%	c #C59293",
"S%	c #993535",
"T%	c #AB5A5A",
"U%	c #E0CBCD",
"V%	c #C38F90",
"W%	c #CDCCCD",
"X%	c #A8A7A7",
"Y%	c #73635A",
"Z%	c #434142",
"`%	c #09090A",
" &	c #565452",
".&	c #CBCBCC",
"+&	c #B5ACAA",
"@&	c #A35151",
"#&	c #9C393A",
"$&	c #C79899",
"%&	c #D2AEAF",
"&&	c #EBE2E4",
"*&	c #CA9C9E",
"=&	c #F2F2F3",
"-&	c #AAA9AA",
";&	c #969392",
">&	c #90847E",
",&	c #222123",
"'&	c #101010",
")&	c #5C5A58",
"!&	c #C1C1C2",
"~&	c #AA9F9D",
"{&	c #A04646",
"]&	c #A75051",
"^&	c #A75050",
"/&	c #BC7D7E",
"(&	c #D3B0B1",
"_&	c #EBE4E6",
":&	c #D6B7B8",
"<&	c #D9C1C2",
"[&	c #AEADAE",
"}&	c #EEEDEE",
"|&	c #76675D",
"1&	c #958D88",
"2&	c #181719",
"3&	c #5D5B59",
"4&	c #B0AEAC",
"5&	c #9B3939",
"6&	c #9F4141",
"7&	c #9D3E3E",
"8&	c #D2B0B1",
"9&	c #DEC7C8",
"0&	c #ACACAD",
"a&	c #E4E4E5",
"b&	c #E7E7E8",
"c&	c #827D7A",
"d&	c #908A88",
"e&	c #141415",
"f&	c #242424",
"g&	c #BAB2B1",
"h&	c #E6E6E8",
"i&	c #B4B4B6",
"j&	c #B1B0B2",
"k&	c #EBEAEB",
"l&	c #B5B5B6",
"m&	c #E0DFDF",
"n&	c #7A726E",
"o&	c #85817F",
"p&	c #363535",
"q&	c #AFA4A3",
"r&	c #9D4949",
"s&	c #A85253",
"t&	c #DCDBDC",
"u&	c #C6C5C7",
"v&	c #D9D7D7",
"w&	c #6D635E",
"x&	c #796A60",
"y&	c #757474",
"z&	c #3D3D3C",
"A&	c #ACABAA",
"B&	c #C5C5C4",
"C&	c #D2CBCC",
"D&	c #DDC9CA",
"E&	c #C08687",
"F&	c #A95556",
"G&	c #9E403F",
"H&	c #A55151",
"I&	c #EDECED",
"J&	c #89898A",
"K&	c #CBC9C9",
"L&	c #675B54",
"M&	c #90837B",
"N&	c #706E6F",
"O&	c #403F3F",
"P&	c #C3C3C5",
"Q&	c #B3B3B4",
"R&	c #9F9F9F",
"S&	c #848484",
"T&	c #8A8A89",
"U&	c #9F9F9E",
"V&	c #C0BFBE",
"W&	c #DAD9DA",
"X&	c #E5E4E4",
"Y&	c #E9E7E8",
"Z&	c #E1D6D5",
"`&	c #D4B8B6",
" *	c #D9BBBA",
".*	c #A7A5A4",
"+*	c #726259",
"@*	c #B2A9A4",
"#*	c #4D4B4D",
"$*	c #0B0B0C",
"%*	c #4B4A49",
"&*	c #B3B2B4",
"**	c #979798",
"=*	c #898889",
"-*	c #7C7C7B",
";*	c #999998",
">*	c #A8A8A6",
",*	c #B3B3B2",
"'*	c #C5C4C3",
")*	c #D5D4D3",
"!*	c #E0DEDE",
"~*	c #E1E0E1",
"{*	c #E3E2E1",
"]*	c #E9E8E8",
"^*	c #EFEEEF",
"/*	c #F3F2F3",
"(*	c #E6E4E4",
"_*	c #7A7574",
":*	c #C0BAB8",
"<*	c #2D2B2C",
"[*	c #1B1B1B",
"}*	c #ABAAAB",
"|*	c #BEBEBE",
"1*	c #A3A3A4",
"2*	c #8A8A8A",
"3*	c #949393",
"4*	c #9C9B9B",
"5*	c #9A9A99",
"6*	c #ACABA9",
"7*	c #D4D3D2",
"8*	c #DFDDDC",
"9*	c #E3E2E2",
"0*	c #EAE8E8",
"a*	c #E7E5E5",
"b*	c #E2E0DF",
"c*	c #E2E1E1",
"d*	c #DBD9D9",
"e*	c #D3D2D2",
"f*	c #A7A6A5",
"g*	c #8A837F",
"h*	c #BCB8B6",
"i*	c #171616",
"j*	c #242325",
"k*	c #414040",
"l*	c #5D5D5E",
"m*	c #7F7E7F",
"n*	c #ABABAD",
"o*	c #CECDCE",
"p*	c #BCBCBC",
"q*	c #A2A1A2",
"r*	c #8F8F8F",
"s*	c #838282",
"t*	c #878685",
"u*	c #8F8E8E",
"v*	c #A3A3A2",
"w*	c #B6B5B5",
"x*	c #BAB9B8",
"y*	c #B3B1B0",
"z*	c #BBB9B8",
"A*	c #BCBAB9",
"B*	c #848383",
"C*	c #EDECEE",
"D*	c #E1E1E2",
"E*	c #615751",
"F*	c #B1AEAC",
"G*	c #3E3E3F",
"H*	c #5B5A5A",
"I*	c #9A9897",
"J*	c #BFBDBD",
"K*	c #CFCDCD",
"L*	c #ECEBED",
"M*	c #DEDDDE",
"N*	c #A7A6A6",
"O*	c #A0A0A1",
"P*	c #9C9C9C",
"Q*	c #A6A6A5",
"R*	c #B1B1B0",
"S*	c #939191",
"T*	c #BBBABB",
"U*	c #766860",
"V*	c #949190",
"W*	c #0C0C0E",
"X*	c #080709",
"Y*	c #1B1A1B",
"Z*	c #1F1E20",
"`*	c #313031",
" =	c #4B4B4C",
".=	c #737374",
"+=	c #B1B0B1",
"@=	c #D0CFD1",
"#=	c #F4F3F5",
"$=	c #AAA8A8",
"%=	c #77675D",
"&=	c #757171",
"*=	c #101012",
"==	c #525153",
"-=	c #787879",
";=	c #606062",
">=	c #BEBEBF",
",=	c #E0DFE1",
"'=	c #ADA7A5",
")=	c #5F5A58",
"!=	c #121213",
"~=	c #706F70",
"{=	c #8E8B8B",
"]=	c #AFADAD",
"^=	c #D2D1D2",
"/=	c #948D89",
"(=	c #5A514C",
"_=	c #131314",
":=	c #232223",
"<=	c #333233",
"[=	c #2A2929",
"}=	c #443B36",
"|=	c #352E2C",
"1=	c #38312D",
"2=	c #131112",
"                                                                                                ",
"                                            . + @ # $ % & * = - ; > , ' ) ! ~ { ] ^ / ( _       ",
"                    : < [ } | 1 2 3 4 5 6 7 7 7 7 7 7 7 7 7 7 7 7 7 7 7 7 7 7 7 7 7 8 9 0 a b   ",
"      c d e f g h i 7 7 7 7 7 7 7 7 7 7 j k l m n o o p q r s t u v w x % y z A B 7 C D 0 E F   ",
"    G H 7 7 7 6 I J J K L M * N O P Q R S T U V W X Y Y Z `  ...+.@.#.$.%.&.*.=.x 7 -.0 0 ;.>.  ",
"    ,.H / '.).!.~.{.].^./.(._.:.<.[.}.|.1.2.3.4.5.6.7.7.7.8.7.7.7.7.7.7.7.7.5.9.0.7 a.0 0 b.    ",
"    c.d.e.f.g.h.i.j.8 k.l.m.n.n.o.p.7 q.r.H s.t.u.I q.v.w.x.H y.l 6 z.m H A.B.C.l y.D.0 0 E.    ",
"    F.G.H.I.J.J.J.J.J.J.K.L.M.M.N.O.P.Q.R.u.f S.q.g T.l U.B j V.W.u.X.Y.7 r Z.`.u. +.+0 0 ++    ",
"    @+#+$+%+&+&+&+&+&+&+&+&+&+&+*+6 7 7 7 7 7 7 7 7 7 7 7 7 7 7 7 7 7 7 7 7 7 z.7 =+-+0 ;+>+    ",
"    ,+'+)+&+&+&+&+&+&+&+&+&+&+&+!+7 7 7 7 7 7 7 7 7 7 6 5 ~+7 u.6 6 u.l {+6 ]+^+7 /+0 0 (+_+    ",
"    u.:+<+[+}+|+1+2+3+4+L.5+6+7+8+9+6 2 | 6 0+a+I b+a+c+d+e+5 f+T.g+h+i++ j+. k+7 l+0 0 m+n+    ",
"  o+7 p+q+&+&+&+&+&+&+&+&+&+&+&+r+7 7 7 7 7 7 7 7 7 s+t+u+s+v+w+5 6 x+y+z+7 A+B+7 C+0 0 D+E+    ",
"  F+7 G+H+&+&+&+&+&+&+&+&+&+&+&+I+7 7 7 7 7 7 7 7 7 7 J+K+s+L+M+A+6 N+O+j 7 P+Q+7 R+0 0 S+T+    ",
"  U+l V+W+&+&+&+&+&+&+&+&+&+&+X+Y+7 7 7 7 7 7 7 7 7 7 Z+`+7  @l 7 y..@x+7 7 +@@@#@$@0 %@&@*@    ",
"  =@w.-@;@>@,@'@)@)@!@~@7+{@]@^@/@(@_@:@<@q [@q }@|@1@2@3@4@5@6@7@L+y+u+8@9@0@l a@0 0 (+b@*@    ",
"  c@d@e@f@&+&+g@h@i@j@k@l@m@n@o@p@q@r@s@2@t@7 u@v@w@x@y+y@u y+z@B A@B@C@D@E@F@v.G@0 0 H@I@J@    ",
"  K@L@M@N@&+O@P@Q@R@S@T@U@V@o@7+W@X@Y@u.Z@`@Q.i+ #6 .#+#q x.y+.#7 @###$#7 7 %#&#*#0 0 =#.@      ",
"  p -#;#>#>@,#i@'#&+&+)#P.!#&+~#{#y+]#s@^#/#(#y+_#7 :#<#I [#y+}#7 |#1#7 7 7 2#3#4#0 5#6#+#      ",
"  w.7#8#9#0#7 a#&+&+&+b#7 c#%+O@d#e#f#g#h#i#j#y+k#7 l#`@7 m#X@n#y.o#:@7 7 6 p#* q#0 r#s#t#      ",
"  @@u#v#w#x#o.~@&+&+&+K.7 y#z#A#B#|@7 7 7 x.y+y+F.7 C#h#7 D#j#q.E#y+F#6 m#G#H#I#J#0 K#L#M#      ",
"  n#N#O#P#Q#R#o@&+&+&+S#7 T#z#U#<#V#7 7 W#X#y+y+Y#j Z#`#l  $.$7 +$+#@$7 #$.@W#$$0 0 %$&$*$      ",
"  J =$-$;$>$m@,$%+z#'$)$7 !$&+~$w+{$7 ]$^$/$<#+#x.@@($f _$y+1@7 + t#:$s+Z#<$s+G@0 0 [$}$|$      ",
"  ]$1$2$3$~@4$5$9+6$P.p.7$8$9$0$a$b$c$d$e$q.f$y+g$h$y+g i$y+[@j$k$y+k#+ l$m$n$o$0 0 p$&$q$      ",
"  Y#r$s$&+&+t$U@u$v$w$x$%+&+&+y$P.s+z$A$:$X.X.{+B$C$D$[@V#E$h#F$y@G$H$o#I$J$K$L$0 M$N$y+O$      ",
"  w.$$P$Q$R$P@S$T$U$V$|+W$X$&+Y$7 7 7 7 7 7 7 7 7 7 7 7 7 7 7 7 7 Z$`$ %v w..%0 0 +%@%.@#%      ",
"  w.$%%%R$7 &%2+>@*%=%-%>@3$Q$;%>%l ,%Z.Q.z Y#X.'%s+Y.F.6 /$s+7 7 7 )%A+!%j ~%0 0 {%]%^%/%      ",
"(%@+_%:%<%7 [%&+&+&+}%P.|%&+1%P.7 7 7 7 7 6 7 q. @6 @@2%q.3%4%5%W#6%F.7%} H 8%0 0 9%0%a%b%      ",
"6#c%d%e%f%$#g%&+&+&+h%p.i@!@i%7 7 7 7 7 7 7 7 7 7 7 7 7 7 7 7 7 7 7 7 j%F@t.k%0 0 l%t#m%n%      ",
"o%X.p%q%r%i@'@&+&+&+z#s%7 t%u%7 7 7 7 7 7 7 7 7 7 7 7 7 7 7 7 7 7 7 7 v%p#w%x%0 0 y%z%A%B%      ",
"  t C%D%E%P.1+&+&+&+&+F%7 G%H%7 7 7 7 7 7 7 7 7 7 7 7 7 7 7 7 7 7 7 7 I%[#J%K%0 L%M%t#N%O%      ",
"  U.P%Q%h%U@R%S%&+&+T%i@7 U%V%7 7 7 7 7 7 7 7 7 7 7 7 7 7 7 7 7 7 7 7 W%@@X%Y%0 (+Z%`% &        ",
"  .&+&@&#&'#R#&%$&%&&&7 7 *&!$7 7 7 7 7 7 7 7 7 7 7 7 7 7 7 7 7 7 7 =&-&u.;&0 0 >&,&'&)&        ",
"  !&~&{&;$]&^&/&(&_&Z$i@:&h%<&7 7 7 7 7 7 7 7 7 7 7 7 7 7 7 7 7 7 7 $#[&}&:.|&0 1&2&a%3&        ",
"  !&4&5&&+&+&+&+&+X$6&>@#&7&8&9&s+0&f  @`#6%6 o a&6 u.7 7 7 7 7 7 7 $#2#b&c&0 0 d&e&f&b%        ",
"  R.g&W$&+&+&+&+&+&+&+&+&+'@m@7 7 7 7 7 j h&7 V.i&I a+j&7 C@+$6 u Q.k&l&m&n&0 0 o&X@p&          ",
"  !&q&r&&+&+&+&+&+&+&+&+&+s&6 7 7 7 7 7 7 7 7 7 7 7 7 7 7 7 7 7 ]$t&u&2%v&w&0 x&y&+#z&          ",
"  l&A&B&C&D&!$E&O@F&G&o@&+H&P.7 7 7 7 7 7 7 7 7 7 7 7 7 7 7 7 7 7 I&J&5 K&L&0 M&N&t#O&          ",
"  P&Q&R&S&T&U&V&W&X&Y&Z&`& *H 7 7 7 7 7 7 7 7 7 7 7 7 7 7 7 7 7 P.X&=+7 .*+*0 @*#*$*%*          ",
"  6 7 7 6 I &***=*-*;*>*,*'*)*!*~*{*]*I%w%I%t.Z$^*H =&7 u.u.6 /*(*) 3%7 _*0 0 :*<*[*            ",
"  }*I 6 7 7 7 7 7 7 7 s+B E#|*1*2*3*4*5*6*C%'*7*8*9*0*a*9*b*c*d*e*f*T.u.g*0 0 h* $i*            ",
"    j*k*l*m*n*X.x.s+j u.7 7 7 7 7 j ~*o*p*q*4*r*s*t*u*v*w*x*y*z*A*B*C*D*E*0 0 F*t#              ",
"            y+($}$j*G*H*I*J*K*!*L*u.7 7 7 7 7 7 6 L*M*s N*O*P*Q*R*S*7 T*U*0 0 V*W*              ",
"                        y+X*Y*Z*`* =.=7#+=@=t&u.H 6 7 7 7 7 7 )%)%#=7 $=%=0 0 &=                ",
"                                  O+.@o#*=L#==-=f$;=g$>=,=s+7 7 7 7 7 '=0 0 0 )=                ",
"                                              !=.@y+B@.@B#E$~={=]=^=6 /=0 0 0 (=                ",
"                                                        y+y+B@_=t+:=<=[=}=|=1=2=+#              ",
"                                                                      y+y+y+y+                  ",
"                                                                                                "};
