/* XPM */
static char * gedit_icon[] = {
"50 50 257 2",
"  	c None",
". 	c #000000",
"+ 	c #010101",
"@ 	c #020202",
"# 	c #030303",
"$ 	c #040404",
"% 	c #050505",
"& 	c #060606",
"* 	c #070707",
"= 	c #080808",
"- 	c #090909",
"; 	c #0A0A0A",
"> 	c #0B0B0B",
", 	c #0C0C0C",
"' 	c #0D0D0D",
") 	c #0E0E0E",
"! 	c #0F0F0F",
"~ 	c #101010",
"{ 	c #111111",
"] 	c #121212",
"^ 	c #131313",
"/ 	c #141414",
"( 	c #151515",
"_ 	c #161616",
": 	c #171717",
"< 	c #181818",
"[ 	c #191919",
"} 	c #1A1A1A",
"| 	c #1B1B1B",
"1 	c #1C1C1C",
"2 	c #1D1D1D",
"3 	c #1E1E1E",
"4 	c #1F1F1F",
"5 	c #202020",
"6 	c #212121",
"7 	c #222222",
"8 	c #232323",
"9 	c #242424",
"0 	c #252525",
"a 	c #262626",
"b 	c #272727",
"c 	c #282828",
"d 	c #292929",
"e 	c #2A2A2A",
"f 	c #2B2B2B",
"g 	c #2C2C2C",
"h 	c #2D2D2D",
"i 	c #2E2E2E",
"j 	c #2F2F2F",
"k 	c #303030",
"l 	c #313131",
"m 	c #323232",
"n 	c #333333",
"o 	c #343434",
"p 	c #353535",
"q 	c #363636",
"r 	c #373737",
"s 	c #383838",
"t 	c #393939",
"u 	c #3A3A3A",
"v 	c #3B3B3B",
"w 	c #3C3C3C",
"x 	c #3D3D3D",
"y 	c #3E3E3E",
"z 	c #3F3F3F",
"A 	c #404040",
"B 	c #414141",
"C 	c #424242",
"D 	c #434343",
"E 	c #444444",
"F 	c #454545",
"G 	c #464646",
"H 	c #474747",
"I 	c #484848",
"J 	c #494949",
"K 	c #4A4A4A",
"L 	c #4B4B4B",
"M 	c #4C4C4C",
"N 	c #4D4D4D",
"O 	c #4E4E4E",
"P 	c #4F4F4F",
"Q 	c #505050",
"R 	c #515151",
"S 	c #525252",
"T 	c #535353",
"U 	c #545454",
"V 	c #555555",
"W 	c #565656",
"X 	c #575757",
"Y 	c #585858",
"Z 	c #595959",
"` 	c #5A5A5A",
" .	c #5B5B5B",
"..	c #5C5C5C",
"+.	c #5D5D5D",
"@.	c #5E5E5E",
"#.	c #5F5F5F",
"$.	c #606060",
"%.	c #616161",
"&.	c #626262",
"*.	c #636363",
"=.	c #646464",
"-.	c #656565",
";.	c #666666",
">.	c #676767",
",.	c #686868",
"'.	c #696969",
").	c #6A6A6A",
"!.	c #6B6B6B",
"~.	c #6C6C6C",
"{.	c #6D6D6D",
"].	c #6E6E6E",
"^.	c #6F6F6F",
"/.	c #707070",
"(.	c #717171",
"_.	c #727272",
":.	c #737373",
"<.	c #747474",
"[.	c #757575",
"}.	c #767676",
"|.	c #777777",
"1.	c #787878",
"2.	c #797979",
"3.	c #7A7A7A",
"4.	c #7B7B7B",
"5.	c #7C7C7C",
"6.	c #7D7D7D",
"7.	c #7E7E7E",
"8.	c #7F7F7F",
"9.	c #808080",
"0.	c #818181",
"a.	c #828282",
"b.	c #838383",
"c.	c #848484",
"d.	c #858585",
"e.	c #868686",
"f.	c #878787",
"g.	c #888888",
"h.	c #898989",
"i.	c #8A8A8A",
"j.	c #8B8B8B",
"k.	c #8C8C8C",
"l.	c #8D8D8D",
"m.	c #8E8E8E",
"n.	c #8F8F8F",
"o.	c #909090",
"p.	c #919191",
"q.	c #929292",
"r.	c #939393",
"s.	c #949494",
"t.	c #959595",
"u.	c #969696",
"v.	c #979797",
"w.	c #989898",
"x.	c #999999",
"y.	c #9A9A9A",
"z.	c #9B9B9B",
"A.	c #9C9C9C",
"B.	c #9D9D9D",
"C.	c #9E9E9E",
"D.	c #9F9F9F",
"E.	c #A0A0A0",
"F.	c #A1A1A1",
"G.	c #A2A2A2",
"H.	c #A3A3A3",
"I.	c #A4A4A4",
"J.	c #A5A5A5",
"K.	c #A6A6A6",
"L.	c #A7A7A7",
"M.	c #A8A8A8",
"N.	c #A9A9A9",
"O.	c #AAAAAA",
"P.	c #ABABAB",
"Q.	c #ACACAC",
"R.	c #ADADAD",
"S.	c #AEAEAE",
"T.	c #AFAFAF",
"U.	c #B0B0B0",
"V.	c #B1B1B1",
"W.	c #B2B2B2",
"X.	c #B3B3B3",
"Y.	c #B4B4B4",
"Z.	c #B5B5B5",
"`.	c #B6B6B6",
" +	c #B7B7B7",
".+	c #B8B8B8",
"++	c #B9B9B9",
"@+	c #BABABA",
"#+	c #BBBBBB",
"$+	c #BCBCBC",
"%+	c #BDBDBD",
"&+	c #BEBEBE",
"*+	c #BFBFBF",
"=+	c #C0C0C0",
"-+	c #C1C1C1",
";+	c #C2C2C2",
">+	c #C3C3C3",
",+	c #C4C4C4",
"'+	c #C5C5C5",
")+	c #C6C6C6",
"!+	c #C7C7C7",
"~+	c #C8C8C8",
"{+	c #C9C9C9",
"]+	c #CACACA",
"^+	c #CBCBCB",
"/+	c #CCCCCC",
"(+	c #CDCDCD",
"_+	c #CECECE",
":+	c #CFCFCF",
"<+	c #D0D0D0",
"[+	c #D1D1D1",
"}+	c #D2D2D2",
"|+	c #D3D3D3",
"1+	c #D4D4D4",
"2+	c #D5D5D5",
"3+	c #D6D6D6",
"4+	c #D7D7D7",
"5+	c #D8D8D8",
"6+	c #D9D9D9",
"7+	c #DADADA",
"8+	c #DBDBDB",
"9+	c #DCDCDC",
"0+	c #DDDDDD",
"a+	c #DEDEDE",
"b+	c #DFDFDF",
"c+	c #E0E0E0",
"d+	c #E1E1E1",
"e+	c #E2E2E2",
"f+	c #E3E3E3",
"g+	c #E4E4E4",
"h+	c #E5E5E5",
"i+	c #E6E6E6",
"j+	c #E7E7E7",
"k+	c #E8E8E8",
"l+	c #E9E9E9",
"m+	c #EAEAEA",
"n+	c #EBEBEB",
"o+	c #ECECEC",
"p+	c #EDEDED",
"q+	c #EEEEEE",
"r+	c #EFEFEF",
"s+	c #F0F0F0",
"t+	c #F1F1F1",
"u+	c #F2F2F2",
"v+	c #F3F3F3",
"w+	c #F4F4F4",
"x+	c #F5F5F5",
"y+	c #F6F6F6",
"z+	c #F7F7F7",
"A+	c #F8F8F8",
"B+	c #F9F9F9",
"C+	c #FAFAFA",
"D+	c #FBFBFB",
"E+	c #FCFCFC",
"F+	c #FDFDFD",
"G+	c #FEFEFE",
"H+	c #FFFFFF",
"H+H+H+H+H+H+H+H+H+H+H+H+H+H+H+H+H+H+H+H+H+H+H+H+G+G+H+G+H+G+G+G+G+G+H+H+G+G+G+F+H+H+H+H+F+F+G+G+G+H+",
"H+H+H+H+H+H+H+H+H+H+H+H+H+H+H+H+H+H+H+H+H+H+H+H+H+G+H+H+H+H+H+G+H+G+H+G+H+G+H+G+H+H+H+H+H+H+H+H+H+H+",
"H+H+G+H+H+H+H+H+H+H+H+H+H+H+H+H+H+H+H+H+H+H+H+H+H+H+G+H+H+G+G+H+G+G+H+H+G+G+G+E+n+w+H+H+H+H+H+H+F+H+",
"H+H+H+H+H+H+H+H+H+H+H+H+H+H+H+H+H+G+x+u+E+G+l+1+4+a+7+/+_+{+/+;+T.W.@+-+P.T.L.X.<.!. +h+H+H+H+H+H+H+",
"H+H+H+H+H+H+H+H+H+H+G+D+C+a+1+:+:+1+b+e+]+++{+5+0+1+3+e+i+j+k+t+G+G+H+G+G+G+G+F+v.b.6.).B+H+H+H+H+G+",
"H+H+H+H+H+H+H+(+G.1.D.#+*+e+j+q+m+q+n+j+q+G+H+B+B+H+E+G+z+G+B+G+G+z+j+2+i+F+G+F+A.8.c.G.H+H+H+H+H+G+",
"H+H+H+H+H+H+H+R.#+L.r+g+c+o+G+B+D+z+l+'+L.c.^.~.T *...K Z J s F A x G U A e.!+k+B.#+[.p.G+G+H+H+F+G+",
"H+H+H+H+H+H+H+3+<+J.H.`.A.&.(.^.Z  .&.f.m.C.z.T.H.Z.X.S.'+N.I.S.P.R.b.k.Y  .-+!+G.$+h.u.G+G+H+H+H+G+",
"G+H+H+H+H+H+E+$+5+R t  .(.z.Q.U.*+)+!+|+,+j+j+1+++1+h+a+c+b+g+6+a+6+/+'+S.7.f+d.z.$+w.K.G+H+H+H+G+H+",
"H+H+H+H+H+H+i+&+2+e.F.=+`.=+~+~+]+}+b+4+s+q+m+r+u+9+l+w+x+x+x+x+y+x+l+5+.+8.i+1.2+>+e.H.E+H+H+H+G+F+",
"H+H+H+H+H+H+3+,+#+&.<+|+w.1.:.i.S.-+-+5+h+t+x+C+F+E+H+G+G+H+G+G+H+G+F+o+!+h.n+}._+^+` l.G+H+H+H+H+G+",
"H+H+H+H+H+H+/+~+F.-.,+s f r p 7 o x M G x+F+A+w+v+s+t+t+w+t+s+t+t+s+w+t+}+Q.y+h.~+B._./.G+H+H+H+H+H+",
"H+H+H+H+H+H+/+5+:.N.>+~.J p k t p j C %.F+H+H+H+G+D+G+F+G+G+G+H+G+G+G+A+w+H.j+.+-+C.v +.G+H+H+H+H+D+",
"H+H+H+H+H+H+Q.^+<.X.G.q n h 3 n y f } 0.y+v+u+v+y+u+x+G.(+(+t+s+f+~.o+k+a+ +'+@+1+I.f *.G+H+H+H+G+F+",
"H+H+H+H+H+F+E.1+;.=+h.l 1 | 5 ] [ 4 ( 0.C+G+H+G+G+C+y+5.u.i+0+w+>.Y F+y+_+~+,+'+U.v.y ,.G+H+H+H+G+G+",
"H+H+H+H+H+z+s.c+[.~+).N k | d c 7 8 H F.G+H+H+G+G+G+x+i.Q.V w F+2.0.E+t+@+8+S.;+Y.].S {.C+H+H+H+G+F+",
"H+H+H+H+H+H+i.6+/.b+'.] < ~ ] 1 / f i z.F+F+G+G+G+E+A+{.<+^+X.P.p $.i+u+N.g+`.V.L.{.S 3.h+H+H+H+H+H+",
"H+H+H+H+H+G+f.3+[.|+y ) - f ~ $ $ - ~ z.H.g.J.p+s+`.I r 3+i+<+Y.f p.f+8+g.o+&+2+r...G m.j+H+H+H+G+F+",
"H+H+H+H+H+G+e.}+5.8+W f J O.m '.$.8.9 e...'+P t+3+` D.W !+n >.h+i o+B+6+y.i+&+!+n.D L g.y+H+H+H+G+G+",
"H+H+H+H+H+G+u.=+B.h+x M V.i.B x n.A v &.~.*+A p+g.7.P.2.F+U y.}+v A+E+e+-+9+-+&+B.H %.o.i+H+H+H+G+G+",
"H+H+H+H+H+H+J.N.p./+G 5.6+M w E v.j q L /.r.N b+P F.q.9.p+A Y.*+-.G+t+8+=+2+W..+j.k -.w.5+H+H+H+G+H+",
"H+H+H+H+H+H+M.Z.G.@+t .+B.n 9 z n.v w :.m.s.%+&+O Q._.R.7+..d+=+i.G+~+*+.+!+U.I.3.K Z e.e+H+H+G+G+G+",
"H+H+H+H+H+H+M.O.Y.r+n i+M h 0 H G.0 J ~.{+F+F+p.Z #+t ++L.O v+k.B.w+n 1.;+$+C.F.6.2.>.p.|+H+H+H+H+H+",
"H+H+H+H+H+H+P.S.Q.v+K <+p l 5 9.@.r A ` p+;.8+!.o Q.j c+j.a.F+:.P.a+8 t.c+v.P.q.<._.3.g.,+H+H+G+G+H+",
"H+H+H+H+H+H+X.G.O.1+6 K r 9 C X : ^ t G 5+8 B+~+, k.z y+/.|.x+1.7.s.w J.m+A.x.O.:.>.i.N.Z.H+H+H+G+H+",
"H+H+H+H+H+H+&+W.;+k+} 6 K.U %.p m 1 ).;+@+*+u+h+H.W.z.w+J K s+U.T p H.7+9+D.N.D.&.}.q.r.Y.H+H+H+E+H+",
"H+H+H+H+H+H+'+C.L.%+/ U 4./ M g ] 7 :.E+F+G+G+G+G+G+G+F+u+g+F+H+]+@+#+].%+.+S./+J }.L.j.G.H+H+H+H+G+",
"H+H+H+H+H+G+;+O.%+ +7 (+R z 6 0.6 e a.s+u+u+w+w+w+t+v+w+w+z+D+G+H+r+c+.+;+)+,+A.s }.K.m.s.G+H+H+H+F+",
"H+H+H+H+H+B+*+O.Z.P.o 4+A r 8 y =.~ w.G+G+H+H+G+G+G+H+G+D+y+A+v+x+9+8+U.V.H.<+u.G <.V.'.v.F+H+H+H+H+",
"H+H+H+H+H+D+*+T.++l.P .+Z w 8 v S.j -+G+H+H+H+H+H+H+H+H+H+E+H+H+G+i+[+,+++^+;+g.V 4.y.!.m.G+H+H+H+G+",
"H+H+H+H+H+E+V.z.:+:.@.`.u j 3 @.++P }+F+H+H+H+H+G+H+H+H+G+E+H+H+G+7+*+d+*+c+-+Q R '.h.*.&+H+H+H+H+A+",
"H+H+H+H+H+A+V.H.1+:.h !+P ( 6 p e+;.e+C+G+H+G+G+H+H+H+H+H+E+G+H+H+d+G.e+X.g+_+F O j.:.U .+H+H+H+H+G+",
"H+H+H+H+H+t+V.n.X.#.k H.O 4 { ..C+V d+D+G+H+H+H+H+H+H+G+H+G+F+H+E+a+T.6+Z.:+~+b T P.6.E =+H+H+H+H+H+",
"H+H+H+H+H+[+)+J.#+x : f  .1 a (+l.^ b+F+G+G+H+H+H+H+H+G+H+G+E+C+F+1+F.c+~+_+Y.h ;.c...p w+H+H+H+H+H+",
"H+H+G+H+H+-+/+B.3+U t l q p m n _ e i+n+t+v+y+A+C+D+G+G+G+H+D+B+F+e+N._+b+(+Y.z ~.{. .B B+H+H+H+H+H+",
"H+H+H+H+H+#+)+K.k+].} 2 k b f } c Z F+G+F+G+D+A+w+u+q+p+q+g+:+6+9+=+v.&+b+9+o.e [.>.L E D+H+H+H+H+H+",
"H+H+H+H+H+&+U.J.i+@. .9 : d | : ~ ^.x+r+v+E+F+G+G+G+G+H+G+F+o+j+e+I.8+,+[+0+c.N 8.V r <.F+H+H+H+H+H+",
"H+H+H+H+H+%+L.F.;+y+w+u+/+W.3.G 2 8.A+j+o+B+x+A+B+w+B+F+G+F+D+s+:+h.F+=+o+1+=.o ;.Z x W.E+H+H+H+H+H+",
"H+H+G+H+H+!+ +T m.=+3+j+q+w+B+t+k+u+t+t+o+p+A+B+D+x+v+x+F+D+z+r+2+I.G+;+j+l++.p *./.d.G+H+H+H+H+H+H+",
"H+H+H+H+H+A.Y.1._./.h.G.=+/+4+b+3+j+f+e+f+c+g+p+f+a+s+u+w+F+D+r+7+O.z+~+i+m+B D W k.A+H+G+H+H+H+H+H+",
"H+H+H+H+G+}.o+c+F+y+<+O.u.d.<.4.o.%+#+W.;+!+.+*+~+{+6+f+j+g+i+6+@+I.f+<+b+3+b F (.X.G+H+H+H+H+H+H+H+",
"H+H+H+H+G+*+6.3.D.f+x+E+G+F+w+=+B.a.4.^.#.&.;.n.M.%+&+:+,+-+`.E.[.O.9+c+(+++H G <.X.H+H+H+H+H+H+H+H+",
"H+H+H+H+H+D+b+'+u.%.G E ;.t.;+9+A+G+G+F+B+D+g+,+R.y.0.0._./.Q $.C m+~+c+6+ +N w /.c+H+H+H+H+H+H+H+H+",
"H+H+H+H+H+H+H+H+H+G+B+c+)+Q.|.X $./.p.>+c+A+D+H+G+H+H+H+G+G+G+z+++G+;+a+}+B.n ^.X.G+H+H+H+H+H+H+H+H+",
"H+H+G+G+H+H+H+H+H+H+H+H+H+H+F+D+v+J.H./.+.O @.a./+8+k+y+G+F+H+H+F+G+=+b+;+}.T b.k+H+H+H+H+H+H+H+H+H+",
"H+H+H+H+H+G+H+H+H+H+H+H+H+H+H+H+H+H+H+H+G+q+:+P.P.2.<.2.i.v.*+|+C+E+.+1+|+&.z `.G+H+H+H+H+H+H+H+H+H+",
"H+H+H+H+H+H+H+H+H+H+H+H+H+H+H+H+H+H+H+H+H+H+H+G+H+H+n+2+F.@.w t G U.B.|.B * +.5+H+H+H+H+H+H+H+H+H+H+",
"H+H+H+H+H+H+H+H+G+H+H+H+H+H+H+H+H+H+H+H+H+H+H+H+H+H+H+H+H+F+q+O.7.L g f A &.^+B+H+H+H+H+H+H+H+H+H+H+",
"H+H+H+H+H+H+H+H+H+H+H+H+H+H+H+H+H+H+H+H+H+H+H+H+H+H+H+H+H+H+H+H+G+r+l+l+t+E+H+H+H+H+H+H+H+H+F+G+H+H+",
"H+H+H+H+H+H+H+H+H+G+H+H+H+H+H+H+H+H+H+H+H+H+H+H+H+H+H+H+H+H+H+H+H+H+H+G+H+H+H+H+H+H+H+H+H+H+H+H+H+H+"};
