/* XPM */
static char * gedit_icon_xpm[] = {
"50 50 246 2",
"  	c None",
". 	c #D9D9D9",
"+ 	c #D4D4D4",
"@ 	c #D7D7D7",
"# 	c #DEDEDE",
"$ 	c #DADADA",
"% 	c #CCCCCC",
"& 	c #CECECE",
"* 	c #C9C9C9",
"= 	c #C2C2C2",
"- 	c #AFAFAF",
"; 	c #B2B2B2",
"> 	c #BABABA",
", 	c #C1C1C1",
"' 	c #ABABAB",
") 	c #A7A7A7",
"! 	c #B3B3B3",
"~ 	c #747474",
"{ 	c #6B6B6B",
"] 	c #B7B7B7",
"^ 	c #E5E5E5",
"/ 	c #CFCFCF",
"( 	c #DFDFDF",
"_ 	c #E2E2E2",
": 	c #CACACA",
"< 	c #B9B9B9",
"[ 	c #D8D8D8",
"} 	c #DDDDDD",
"| 	c #D6D6D6",
"1 	c #E6E6E6",
"2 	c #E7E7E7",
"3 	c #E8E8E8",
"4 	c #F1F1F1",
"5 	c #FEFEFE",
"6 	c #FFFFFF",
"7 	c #FDFDFD",
"8 	c #979797",
"9 	c #838383",
"0 	c #7D7D7D",
"a 	c #6A6A6A",
"b 	c #CDCDCD",
"c 	c #A2A2A2",
"d 	c #787878",
"e 	c #9F9F9F",
"f 	c #BBBBBB",
"g 	c #BFBFBF",
"h 	c #EEEEEE",
"i 	c #EAEAEA",
"j 	c #EBEBEB",
"k 	c #F9F9F9",
"l 	c #FCFCFC",
"m 	c #F7F7F7",
"n 	c #D5D5D5",
"o 	c #9C9C9C",
"p 	c #7F7F7F",
"q 	c #848484",
"r 	c #ADADAD",
"s 	c #EFEFEF",
"t 	c #E4E4E4",
"u 	c #E0E0E0",
"v 	c #ECECEC",
"w 	c #FBFBFB",
"x 	c #E9E9E9",
"y 	c #C5C5C5",
"z 	c #6F6F6F",
"A 	c #6C6C6C",
"B 	c #535353",
"C 	c #636363",
"D 	c #5C5C5C",
"E 	c #4A4A4A",
"F 	c #595959",
"G 	c #494949",
"H 	c #383838",
"I 	c #454545",
"J 	c #404040",
"K 	c #3D3D3D",
"L 	c #464646",
"M 	c #545454",
"N 	c #868686",
"O 	c #C7C7C7",
"P 	c #9D9D9D",
"Q 	c #757575",
"R 	c #919191",
"S 	c #D0D0D0",
"T 	c #A5A5A5",
"U 	c #A3A3A3",
"V 	c #B6B6B6",
"W 	c #626262",
"X 	c #717171",
"Y 	c #5B5B5B",
"Z 	c #878787",
"` 	c #8E8E8E",
" .	c #9E9E9E",
"..	c #9B9B9B",
"+.	c #B5B5B5",
"@.	c #AEAEAE",
"#.	c #A9A9A9",
"$.	c #A4A4A4",
"%.	c #8C8C8C",
"&.	c #585858",
"*.	c #BCBCBC",
"=.	c #898989",
"-.	c #969696",
";.	c #515151",
">.	c #393939",
",.	c #ACACAC",
"'.	c #B0B0B0",
").	c #C6C6C6",
"!.	c #D3D3D3",
"~.	c #C4C4C4",
"{.	c #7E7E7E",
"].	c #E3E3E3",
"^.	c #858585",
"/.	c #989898",
"(.	c #A6A6A6",
"_.	c #BEBEBE",
":.	c #A1A1A1",
"<.	c #C0C0C0",
"[.	c #C8C8C8",
"}.	c #D2D2D2",
"|.	c #F0F0F0",
"1.	c #F2F2F2",
"2.	c #DCDCDC",
"3.	c #F4F4F4",
"4.	c #F5F5F5",
"5.	c #F6F6F6",
"6.	c #B8B8B8",
"7.	c #C3C3C3",
"8.	c #737373",
"9.	c #8A8A8A",
"0.	c #FAFAFA",
"a.	c #767676",
"b.	c #CBCBCB",
"c.	c #5A5A5A",
"d.	c #8D8D8D",
"e.	c #656565",
"f.	c #2B2B2B",
"g.	c #373737",
"h.	c #353535",
"i.	c #222222",
"j.	c #343434",
"k.	c #4C4C4C",
"l.	c #F8F8F8",
"m.	c #F3F3F3",
"n.	c #727272",
"o.	c #707070",
"p.	c #303030",
"q.	c #2F2F2F",
"r.	c #424242",
"s.	c #616161",
"t.	c #3B3B3B",
"u.	c #5D5D5D",
"v.	c #363636",
"w.	c #333333",
"x.	c #2D2D2D",
"y.	c #1E1E1E",
"z.	c #3E3E3E",
"A.	c #1A1A1A",
"B.	c #818181",
"C.	c #A0A0A0",
"D.	c #666666",
"E.	c #313131",
"F.	c #1C1C1C",
"G.	c #1B1B1B",
"H.	c #202020",
"I.	c #121212",
"J.	c #191919",
"K.	c #1F1F1F",
"L.	c #151515",
"M.	c #7C7C7C",
"N.	c #676767",
"O.	c #686868",
"P.	c #949494",
"Q.	c #4D4D4D",
"R.	c #292929",
"S.	c #282828",
"T.	c #232323",
"U.	c #474747",
"V.	c #555555",
"W.	c #3C3C3C",
"X.	c #797979",
"Y.	c #DBDBDB",
"Z.	c #B4B4B4",
"`.	c #6E6E6E",
" +	c #525252",
".+	c #6D6D6D",
"++	c #696969",
"@+	c #181818",
"#+	c #101010",
"$+	c #141414",
"%+	c #2E2E2E",
"&+	c #606060",
"*+	c #B1B1B1",
"=+	c #7A7A7A",
"-+	c #0E0E0E",
";+	c #090909",
">+	c #040404",
",+	c #888888",
"'+	c #EDEDED",
")+	c #484848",
"!+	c #939393",
"~+	c #565656",
"{+	c #AAAAAA",
"]+	c #323232",
"^+	c #242424",
"/+	c #4F4F4F",
"(+	c #9A9A9A",
"_+	c #8F8F8F",
":+	c #434343",
"<+	c #4B4B4B",
"[+	c #414141",
"}+	c #909090",
"|+	c #444444",
"1+	c #929292",
"2+	c #808080",
"3+	c #8B8B8B",
"4+	c #A8A8A8",
"5+	c #3F3F3F",
"6+	c #BDBDBD",
"7+	c #4E4E4E",
"8+	c #E1E1E1",
"9+	c #252525",
"0+	c #5E5E5E",
"a+	c #828282",
"b+	c #959595",
"c+	c #212121",
"d+	c #575757",
"e+	c #171717",
"f+	c #131313",
"g+	c #0C0C0C",
"h+	c #777777",
"i+	c #999999",
"j+	c #7B7B7B",
"k+	c #2C2C2C",
"l+	c #2A2A2A",
"m+	c #646464",
"n+	c #D1D1D1",
"o+	c #3A3A3A",
"p+	c #505050",
"q+	c #5F5F5F",
"r+	c #111111",
"s+	c #272727",
"t+	c #262626",
"u+	c #161616",
"v+	c #1D1D1D",
"w+	c #070707",
"                                                                                                    ",
"                                                                                                    ",
"                                                                                                    ",
"                                            . + @ # $ % & * % = - ; > , ' - ) ! ~ { ] ^             ",
"                          # + / / + ( _ : < * [ } + | _ 1 2 3 4 5 5 6 5 5 5 5 7 8 9 0 a             ",
"              b c d e f g _ 2 h i h j 2 h 5 6 k k 6 l 5 m 5 k 5 5 m 2 n 1 7 5 7 o p q c             ",
"              r f ) s t u v 5 k w m x y ) q z A B C D E F G H I J K L M J N O 3 P f Q R             ",
"              | S T U V o W X z F Y W Z `  ...- U +.! @.y #.$.@.' r 9 %.&.Y , O c *.=.-.            ",
"              *.[ ;.>.Y X ..,.'.g ).O !.~.2 2 + < + ^ # u ( t . # . % y @.{.].^...*./.(.            ",
"            1 _.n N :.<.V <.[.[.: }.( @ |.h i s 1.2.x 3.4.4.4.4.5.4.x [ 6.p 1 d n 7.N U             ",
"            | ~.f W S !./.d 8.9.@., , [ ^ 4 4.0.7 l 6 5 5 6 5 5 6 5 7 v O =.j a.& b.c.d.            ",
"            % [.:.e.~.H f.g.h.i.j.K k.L 4.7 l.3.m.|.4 4 3.4 |.4 4 |.3.4 }.,.5.=.[.P n.o.            ",
"            % [ 8.#.7.A G h.p.>.h.q.r.s.7 6 6 6 5 w 5 7 5 5 5 6 5 5 5 l.3.U 2 6.,  .t.u.            ",
"            ,.b.~ ! c v.w.x.y.w.z.f.A.B.5.m.1.m.5.1.4.c b b 4 |.].A v 3 # ] y > + $.f.C             ",
"            C.+ D.<.=.E.F.G.H.I.J.K.L.B.0.5 6 5 5 0.5.M.-.1 } 3.N.&.7 5.& [.~.y '.8 z.O.            ",
"            P.u Q [.a Q.p.G.R.S.i.T.U.:.5 6 6 5 5 5 4.9.,.V.W.7 X.B.l 4 > Y.@.= Z.`. +.+            ",
"            9.. o.( ++I.@+#+I.F.$+f.%+..7 7 5 5 5 l l..+S b.! ' h.&+1 1.#.t V *+) .+ +=+^           ",
"            Z | Q !.z.-+;+f.#+>+>+;+#+..U ,+T '+|.V )+g.| 1 S Z.f.R ].Y.,+v _.n !+D L ` 2           ",
"            N }.M.Y.~+f.G {+]+++&+p ^+N D y /+4 | c.e ~+O w.N.^ %+v k . (+1 _.O _+:+<+,+            ",
"            -.<.P ^ K k.*+9.[+K _+J t.W A g J '+,+{.' X.7 M (+}.t.l.l _ , 2., _.P U.s.}+1           ",
"            T #.R % L M.. k.W.|+8 q.v.<+o.!+Q.( /+:.1+2+'+J Z.g e.5 4 Y.<.n ; 6.3+p.e./.[           ",
"            4++.c > >.6.P w.^+5+_+t.W.8.` P.6+_.7+,.n.r $ D 8+<.9.5 [.g 6.O '.$.=+E F N _           ",
"            4+{+Z.s w.1 k.x.9+U.c 9+G A * 7 7 R F f >.< ) 7+m.%.P 3.w.d = *. .:.0 X.N.R !.          ",
"            ' @.,.m.E S h.E.H.2+0+g.J c.'+D.Y.{ j.,.q.u 3+a+7 8.' # T.b+u 8 ' 1+~ n.=+,+~.          ",
"            ! c {++ c+E g.^+r.d+e+f+>.L [ T.k [.g+%.5+5.o.h+4.d {.P.W.T i o i+{+8.N.9.#.+.          ",
"            _.; = 3 A.c+(.M s.h.]+F.a = > g 1.^ U ; ..3.G E |.'.B h.U $ 2.e #.e W a.1+!+Z.          ",
"            y  .) 6+$+M j+$+k.k+I.i.8.l 7 5 5 5 5 5 5 7 1.t 7 6 : > f `.6+6.@.% G a.) 3+c           ",
"            = {+6+] i.b ;.5+c+B.c+l+a+|.1.1.3.3.3.4 m.3.3.m w 5 6 s u 6.= ).~.o H a.(.` P.          ",
"            g {++.' j.@ J g.T.z.m+#+/.5 5 6 6 5 5 5 6 5 w 5.l.m.4.2.Y.'.*+U S -.L ~ *+++8           ",
"            g - < d./+6.F W.T.t.@.q., 5 6 6 6 6 6 6 6 6 6 l 6 6 5 1 n+~.< b.= ,+V.j+(+{ `           ",
"            *+../ 8.0+V o+q.y.0+< /+}.7 6 6 6 6 5 6 6 6 5 l 6 6 5 $ g 8+g u , p+;.++=.C _.          ",
"            *+U + 8.x.O /+L.c+h._ D._ 0.5 6 5 5 6 6 6 6 6 l 5 6 6 8+c _ ! t & I 7+3+8.M 6.          ",
"            *+_+! q+p.U 7+K.r+D 0.V.8+w 5 6 6 6 6 6 6 5 6 5 7 6 l # - . +./ [.s+B ' 0 |+<.          ",
"          n+).T f K e+f.Y F.t+b d.f+( 7 5 5 6 6 6 6 6 5 6 5 l 0.7 + :.u [.& Z.x.D.q D h.            ",
"          , % P | M >.E.v.h.]+w.u+l+1 j 4 m.5.l.0.w 5 5 5 6 w k 7 _ #.& ( b Z.5+A .+Y [+            ",
"          f ).(.3 `.A.v+p.s+f.A.S.F 7 5 7 5 w l.3.1.h '+h t / . 2.<.8 _.( 2.}+l+Q N.<+|+            ",
"          _.'.T 1 0+Y ^+e+R.G.e+#+z 4.s m.l 7 5 5 5 5 6 5 7 v 2 _ $.Y.~.n+} q Q.p V.g.~             ",
"          6+) :.= 5.3.1.% ; =+L v+p l.2 v k 4.l.k 3.k 7 5 7 w |./ =.7 <.v + m+j.D.F K ;             ",
"          O ] B ` <.| 2 h 3.k 4 3 1.4 4 v '+l.k w 4.m.4.7 w m s n $.5 = 2 x u.h.C o.^.              ",
"          o Z.d n.o.=.c <.% @ ( | 2 ]._ ].u t '+].# |.1.3.7 w s $ {+m [.1 i [+:+~+%.                ",
"          a.v u 7 5.S {+-.^.~ j+}+6+f ; = O 6.g [.* . ].2 t 1 . > $.].S ( | s+I X !                 ",
"          g 0 =+e ].4.l 5 7 3.<.P a+j+z q+W D._+4+6+_./ ~., V C.Q {+2.u b < U.L ~ !                 ",
"            ( y -.s.L |+D.b+= 2.l.5 5 7 k w t ~.r (+B.B.n.o.p+&+r.i [.u . ] Q.W.o.u                 ",
"                      u ).,.h+d+    R 7.u l.w 6 5 6 6 6 5 5 5 m < 5 = # }.P w.z !                   ",
"                                            0+a+% Y.3 5.5 7 6 6 7 5 <.( = a.B 9 3                   ",
"                                            / ' ' X.~ X.9.8 g !.0.l 6.+ !.W 5+V                     ",
"                                                    o n :.0+W.>.L '.P h+[+w+u.[                     ",
"                                                              {+{.<+k+f.J W b.                      ",
"                                                                                                    ",
"                                                                                                    "};
