<?xml version="1.0" encoding="UTF-8" standalone="no"?>
<!-- Created with Inkscape (http://www.inkscape.org/) -->
<svg
   xmlns:dc="http://purl.org/dc/elements/1.1/"
   xmlns:cc="http://creativecommons.org/ns#"
   xmlns:rdf="http://www.w3.org/1999/02/22-rdf-syntax-ns#"
   xmlns:svg="http://www.w3.org/2000/svg"
   xmlns="http://www.w3.org/2000/svg"
   xmlns:xlink="http://www.w3.org/1999/xlink"
   xmlns:sodipodi="http://sodipodi.sourceforge.net/DTD/sodipodi-0.dtd"
   xmlns:inkscape="http://www.inkscape.org/namespaces/inkscape"
   width="744.09448819"
   height="1052.3622047"
   id="svg2"
   sodipodi:version="0.32"
   inkscape:version="0.46"
   sodipodi:docname="background.svg"
   inkscape:output_extension="org.inkscape.output.svg.inkscape"
   inkscape:export-filename="/Users/jesse/gtk/source/gedit/osx/dmg-data/background.png"
   inkscape:export-xdpi="90"
   inkscape:export-ydpi="90">
  <defs
     id="defs4">
    <linearGradient
       id="linearGradient9545">
      <stop
         style="stop-color:#a6d1ef;stop-opacity:1;"
         offset="0"
         id="stop9547" />
      <stop
         style="stop-color:#a8c5eb;stop-opacity:0;"
         offset="1"
         id="stop9549" />
    </linearGradient>
    <marker
       inkscape:stockid="Arrow1Send"
       orient="auto"
       refY="0.0"
       refX="0.0"
       id="Arrow1Send"
       style="overflow:visible;">
      <path
         id="path3874"
         d="M 0.0,0.0 L 5.0,-5.0 L -12.5,0.0 L 5.0,5.0 L 0.0,0.0 z "
         style="fill-rule:evenodd;stroke:#000000;stroke-width:1.0pt;marker-start:none;"
         transform="scale(0.2) rotate(180) translate(6,0)" />
    </marker>
    <marker
       inkscape:stockid="TriangleOutM"
       orient="auto"
       refY="0.0"
       refX="0.0"
       id="TriangleOutM"
       style="overflow:visible">
      <path
         id="path4005"
         d="M 5.77,0.0 L -2.88,5.0 L -2.88,-5.0 L 5.77,0.0 z "
         style="fill-rule:evenodd;stroke:#000000;stroke-width:1.0pt;marker-start:none"
         transform="scale(0.4)" />
    </marker>
    <marker
       inkscape:stockid="TriangleOutS"
       orient="auto"
       refY="0.0"
       refX="0.0"
       id="TriangleOutS"
       style="overflow:visible">
      <path
         id="path4008"
         d="M 5.77,0.0 L -2.88,5.0 L -2.88,-5.0 L 5.77,0.0 z "
         style="fill-rule:evenodd;stroke:#000000;stroke-width:1.0pt;marker-start:none"
         transform="scale(0.2)" />
    </marker>
    <marker
       inkscape:stockid="Arrow1Mend"
       orient="auto"
       refY="0.0"
       refX="0.0"
       id="Arrow1Mend"
       style="overflow:visible;">
      <path
         id="path3868"
         d="M 0.0,0.0 L 5.0,-5.0 L -12.5,0.0 L 5.0,5.0 L 0.0,0.0 z "
         style="fill-rule:evenodd;stroke:#000000;stroke-width:1.0pt;marker-start:none;"
         transform="scale(0.4) rotate(180) translate(10,0)" />
    </marker>
    <marker
       inkscape:stockid="Arrow2Mend"
       orient="auto"
       refY="0.0"
       refX="0.0"
       id="Arrow2Mend"
       style="overflow:visible;">
      <path
         id="path3886"
         style="font-size:12.0;fill-rule:evenodd;stroke-width:0.62500000;stroke-linejoin:round;"
         d="M 8.7185878,4.0337352 L -2.2072895,0.016013256 L 8.7185884,-4.0017078 C 6.9730900,-1.6296469 6.9831476,1.6157441 8.7185878,4.0337352 z "
         transform="scale(0.6) rotate(180) translate(0,0)" />
    </marker>
    <marker
       inkscape:stockid="Arrow2Lend"
       orient="auto"
       refY="0.0"
       refX="0.0"
       id="Arrow2Lend"
       style="overflow:visible;">
      <path
         id="path3880"
         style="font-size:12.0;fill-rule:evenodd;stroke-width:0.62500000;stroke-linejoin:round;"
         d="M 8.7185878,4.0337352 L -2.2072895,0.016013256 L 8.7185884,-4.0017078 C 6.9730900,-1.6296469 6.9831476,1.6157441 8.7185878,4.0337352 z "
         transform="scale(1.1) rotate(180) translate(1,0)" />
    </marker>
    <marker
       inkscape:stockid="Arrow1Lend"
       orient="auto"
       refY="0.0"
       refX="0.0"
       id="Arrow1Lend"
       style="overflow:visible;">
      <path
         id="path3862"
         d="M 0.0,0.0 L 5.0,-5.0 L -12.5,0.0 L 5.0,5.0 L 0.0,0.0 z "
         style="fill-rule:evenodd;stroke:#000000;stroke-width:1.0pt;marker-start:none;"
         transform="scale(0.8) rotate(180) translate(12.5,0)" />
    </marker>
    <linearGradient
       id="linearGradient3155">
      <stop
         style="stop-color:#dae6fe;stop-opacity:1;"
         offset="0"
         id="stop3157" />
      <stop
         style="stop-color:#ffffff;stop-opacity:0;"
         offset="1"
         id="stop3159" />
    </linearGradient>
    <inkscape:perspective
       sodipodi:type="inkscape:persp3d"
       inkscape:vp_x="0 : 526.18109 : 1"
       inkscape:vp_y="0 : 1000 : 0"
       inkscape:vp_z="744.09448 : 526.18109 : 1"
       inkscape:persp3d-origin="372.04724 : 350.78739 : 1"
       id="perspective10" />
    <linearGradient
       inkscape:collect="always"
       xlink:href="#linearGradient3155"
       id="linearGradient3161"
       x1="406.21429"
       y1="621.43317"
       x2="408.21429"
       y2="321.4332"
       gradientUnits="userSpaceOnUse"
       gradientTransform="translate(3,1)" />
    <inkscape:perspective
       id="perspective3251"
       inkscape:persp3d-origin="571.97833 : 136.13385 : 1"
       inkscape:vp_z="1143.9567 : 204.20078 : 1"
       inkscape:vp_y="0 : 1000 : 0"
       inkscape:vp_x="0 : 204.20078 : 1"
       sodipodi:type="inkscape:persp3d" />
    <linearGradient
       id="linearGradient2791">
      <stop
         id="stop2793"
         offset="0"
         style="stop-color:#555753;stop-opacity:1;" />
      <stop
         style="stop-color:#cccdcb;stop-opacity:1;"
         offset="0.5"
         id="stop2799" />
      <stop
         id="stop2795"
         offset="1"
         style="stop-color:#555753;stop-opacity:1" />
    </linearGradient>
    <linearGradient
       id="linearGradient2804">
      <stop
         id="stop2806"
         offset="0"
         style="stop-color:white;stop-opacity:1" />
      <stop
         id="stop2808"
         offset="1"
         style="stop-color:#d3d7cf;stop-opacity:1" />
    </linearGradient>
    <linearGradient
       id="linearGradient3415">
      <stop
         id="stop3417"
         offset="0"
         style="stop-color:black;stop-opacity:0;" />
      <stop
         style="stop-color:black;stop-opacity:1;"
         offset="0.5"
         id="stop3423" />
      <stop
         id="stop3419"
         offset="1"
         style="stop-color:black;stop-opacity:0;" />
    </linearGradient>
    <inkscape:perspective
       id="perspective3591"
       inkscape:persp3d-origin="24 : 16 : 1"
       inkscape:vp_z="48 : 24 : 1"
       inkscape:vp_y="0 : 1000 : 0"
       inkscape:vp_x="0 : 24 : 1"
       sodipodi:type="inkscape:persp3d" />
    <linearGradient
       inkscape:collect="always"
       xlink:href="#linearGradient9545"
       id="linearGradient9551"
       x1="450"
       y1="454.36218"
       x2="271"
       y2="521.36218"
       gradientUnits="userSpaceOnUse" />
  </defs>
  <sodipodi:namedview
     id="base"
     pagecolor="#ffffff"
     bordercolor="#666666"
     borderopacity="1.0"
     gridtolerance="10000"
     guidetolerance="10"
     objecttolerance="10"
     inkscape:pageopacity="0.0"
     inkscape:pageshadow="2"
     inkscape:zoom="1"
     inkscape:cx="452"
     inkscape:cy="587"
     inkscape:document-units="px"
     inkscape:current-layer="layer1"
     showgrid="false"
     inkscape:window-width="1183"
     inkscape:window-height="674"
     inkscape:window-x="95"
     inkscape:window-y="197" />
  <metadata
     id="metadata7">
    <rdf:RDF>
      <cc:Work
         rdf:about="">
        <dc:format>image/svg+xml</dc:format>
        <dc:type
           rdf:resource="http://purl.org/dc/dcmitype/StillImage" />
      </cc:Work>
    </rdf:RDF>
  </metadata>
  <g
     inkscape:label="Layer 1"
     inkscape:groupmode="layer"
     id="layer1">
    <rect
       style="fill:url(#linearGradient3161);fill-opacity:1;fill-rule:evenodd;stroke:#000000;stroke-width:0;stroke-linecap:butt;stroke-linejoin:miter;stroke-opacity:1;stroke-miterlimit:4;stroke-dasharray:none"
       id="rect2383"
       width="499.49338"
       height="299.49338"
       x="132.46759"
       y="322.68649" />
    <g
       id="g3254"
       transform="matrix(0.157227,0,0,0.157227,466.1613,513.07606)"
       style="fill:#0e3b76;fill-opacity:1">
      <g
         id="g15041"
         transform="matrix(1.293235,0,0,1.293235,-4878.321,-1224.915)"
         style="fill:#0e3b76;fill-opacity:1">
        <g
           id="g15043"
           style="fill:#0e3b76;fill-opacity:1;fill-rule:nonzero;stroke:none;stroke-miterlimit:4"
           transform="matrix(2.438586,0,0,2.438586,3659.952,1113.451)">
          <g
             id="g15045"
             style="fill:#0e3b76;fill-opacity:1">
            <path
               id="path15047"
               style="fill:#0e3b76;fill-opacity:1"
               d="M 86.068,0 C 61.466,0 56.851,35.041 70.691,35.041 C 84.529,35.041 110.671,0 86.068,0 z" />
            <path
               id="path15049"
               style="fill:#0e3b76;fill-opacity:1"
               d="M 45.217,30.699 C 52.586,31.149 60.671,2.577 46.821,4.374 C 32.976,6.171 37.845,30.249 45.217,30.699 z" />
            <path
               id="path15051"
               style="fill:#0e3b76;fill-opacity:1"
               d="M 11.445,48.453 C 16.686,46.146 12.12,23.581 3.208,29.735 C -5.7,35.89 6.204,50.759 11.445,48.453 z" />
            <path
               id="path15053"
               style="fill:#0e3b76;fill-opacity:1"
               d="M 26.212,36.642 C 32.451,35.37 32.793,9.778 21.667,14.369 C 10.539,18.961 19.978,37.916 26.212,36.642 L 26.212,36.642 z" />
            <path
               id="path15055"
               style="fill:#0e3b76;fill-opacity:1"
               d="M 58.791,93.913 C 59.898,102.367 52.589,106.542 45.431,101.092 C 22.644,83.743 83.16,75.088 79.171,51.386 C 75.86,31.712 15.495,37.769 8.621,68.553 C 3.968,89.374 27.774,118.26 52.614,118.26 C 64.834,118.26 78.929,107.226 81.566,93.248 C 83.58,82.589 57.867,86.86 58.791,93.913 L 58.791,93.913 z" />
          </g>
        </g>
        <g
           id="g15057"
           style="fill:#0e3b76;fill-opacity:1">
          <path
             id="path15059"
             style="font-size:148.69964600000000132px;font-style:normal;font-variant:normal;font-weight:bold;font-stretch:normal;text-align:start;line-height:125%;writing-mode:lr-tb;text-anchor:start;fill:#0e3b76;fill-opacity:1;stroke:none;stroke-width:1pt;stroke-linecap:butt;stroke-linejoin:miter;stroke-opacity:1;font-family:Bitstream Vera Sans"
             d="M 4176.2963,1214.4401 C 4161.1885,1214.847 4149.2577,1220.2768 4140.4837,1230.6901 C 4131.3976,1241.527 4126.8275,1256.5005 4126.8275,1275.5964 C 4126.8275,1294.6396 4131.3978,1309.5721 4140.4837,1320.4088 C 4149.6142,1331.2457 4162.1501,1336.6588 4178.14,1336.6588 C 4194.174,1336.6588 4206.7414,1331.2457 4215.8275,1320.4088 C 4224.9134,1309.5721 4229.4526,1294.6396 4229.4525,1275.5964 C 4229.4524,1256.5005 4224.9134,1241.527 4215.8275,1230.6901 C 4206.7414,1219.8535 4194.1739,1214.4402 4178.14,1214.4401 C 4177.5154,1214.4401 4176.9104,1214.4236 4176.2963,1214.4401 z M 4177.4213,1236.4401 C 4177.6628,1236.4334 4177.895,1236.4401 4178.14,1236.4401 C 4186.0233,1236.4402 4192.1319,1239.8515 4196.4525,1246.6901 C 4200.7728,1253.5289 4202.9524,1263.1814 4202.9525,1275.5964 C 4202.9525,1287.9587 4200.7726,1297.5391 4196.4525,1304.3776 C 4192.1321,1311.2165 4186.0232,1314.6588 4178.14,1314.6588 C 4170.3009,1314.6588 4164.2417,1311.2165 4159.9213,1304.3776 C 4155.6009,1297.5391 4153.4214,1287.9587 4153.4213,1275.5964 C 4153.4213,1263.1815 4155.6011,1253.5289 4159.9213,1246.6901 C 4164.1065,1240.0652 4169.9336,1236.6473 4177.4213,1236.4401 z" />
          <path
             id="path15061"
             style="font-size:148.69964600000000132px;font-style:normal;font-variant:normal;font-weight:bold;font-stretch:normal;text-align:start;line-height:125%;writing-mode:lr-tb;text-anchor:start;fill:#0e3b76;fill-opacity:1;stroke:none;stroke-width:1pt;stroke-linecap:butt;stroke-linejoin:miter;stroke-opacity:1;font-family:Bitstream Vera Sans"
             d="M 4005.6293,1325.612 C 3992.3217,1336.7877 3972.5226,1336.6592 3964.2744,1336.6592 C 3947.6611,1336.6592 3934.4997,1331.1882 3924.7902,1320.2462 C 3915.0805,1309.2516 3910.2258,1294.3643 3910.2258,1275.584 C 3910.2258,1256.5934 3915.1696,1241.6535 3925.0574,1230.764 C 3934.9452,1219.8748 3948.4851,1214.4301 3965.6774,1214.43 C 3972.3137,1214.4301 3978.6605,1215.1666 3984.718,1216.6394 C 3990.8199,1218.1124 3996.5655,1220.2956 4001.9548,1223.1888 L 3995.0338,1243.6496 C 3992.004,1241.991 3988.5351,1240.3564 3985.3193,1239.2072 C 3979.8409,1237.3661 3974.3403,1236.4455 3968.8175,1236.4454 C 3958.5733,1236.4455 3950.6675,1239.8386 3945.1002,1246.6246 C 3939.5772,1253.3582 3936.8158,1263.0113 3936.8158,1275.584 C 3936.8158,1288.0516 3939.4881,1297.6785 3944.833,1304.4646 C 3950.1776,1311.2507 3958.2098,1314.6437 3967.6148,1314.6437 C 3977.1696,1314.6437 3983.0876,1312.2353 3986.2439,1309.6976 L 3986.2439,1289.3141 L 3965.5438,1289.3141 L 3965.5438,1268.9557 L 4005.6293,1268.9557" />
          <path
             id="path15063"
             style="font-size:148.69964600000000132px;font-style:normal;font-variant:normal;font-weight:bold;font-stretch:normal;text-align:start;line-height:125%;writing-mode:lr-tb;text-anchor:start;fill:#0e3b76;fill-opacity:1;stroke:none;stroke-width:1pt;stroke-linecap:butt;stroke-linejoin:miter;stroke-opacity:1;font-family:Bitstream Vera Sans"
             d="M 4023.2108,1216.5605 L 4039.4387,1216.5605 L 4090.7162,1287.3627 L 4090.7162,1216.5605 L 4112.6015,1216.5605 L 4112.6015,1334.3708 L 4096.3736,1334.3708 L 4045.0962,1263.5686 L 4045.0962,1334.3708 L 4023.2108,1334.3708 L 4023.2108,1216.5605" />
          <path
             id="path15065"
             style="font-size:148.69964600000000132px;font-style:normal;font-variant:normal;font-weight:bold;font-stretch:normal;text-align:start;line-height:125%;writing-mode:lr-tb;text-anchor:start;fill:#0e3b76;fill-opacity:1;stroke:none;stroke-width:1pt;stroke-linecap:butt;stroke-linejoin:miter;stroke-opacity:1;font-family:Bitstream Vera Sans"
             d="M 4246.3361,1216.5605 L 4279.0727,1216.5605 L 4301.7878,1290.1084 L 4324.6365,1216.5605 L 4352.3063,1216.5605 L 4364.8063,1334.3708 L 4340.4877,1334.3708 L 4332.9877,1260.7028 L 4310.0054,1334.7241 L 4293.7039,1334.7241 L 4270.7215,1258.2028 L 4263.2215,1334.3708 L 4238.8361,1334.3708 L 4251.3361,1216.5605" />
          <path
             id="path15067"
             style="font-size:148.69964600000000132px;font-style:normal;font-variant:normal;font-weight:bold;font-stretch:normal;text-align:start;line-height:125%;writing-mode:lr-tb;text-anchor:start;fill:#0e3b76;fill-opacity:1;stroke:none;stroke-width:1pt;stroke-linecap:butt;stroke-linejoin:miter;stroke-opacity:1;font-family:Bitstream Vera Sans"
             d="M 4382.3597,1216.5605 L 4451.7744,1216.5605 L 4451.7744,1239.5229 L 4408.0811,1239.5229 L 4408.0811,1263.9594 L 4441.6688,1263.9594 L 4441.6688,1284.4217 L 4408.0811,1284.4217 L 4408.0811,1311.4085 L 4453.2442,1311.4085 L 4453.2442,1334.3708 L 4382.3597,1334.3708 L 4382.3597,1216.5605" />
          <text
             xml:space="preserve"
             id="text15069"
             style="font-size:30.68958854999999986px;font-style:normal;font-weight:normal;fill:#0e3b76;fill-opacity:1;stroke:none;stroke-width:1pt;stroke-linecap:butt;stroke-linejoin:miter;stroke-opacity:1;font-family:Bitstream Vera Sans"
             y="1215.743"
             x="4474.6182"><tspan
               id="tspan15072"
               style="letter-spacing:11.06259632000000082;fill:#0e3b76;fill-opacity:1"
               y="1215.743"
               x="4474.6182"><tspan
                 id="tspan15074"
                 style="letter-spacing:0.25238149999999998;fill:#0e3b76;fill-opacity:1">TM</tspan></tspan></text>
        </g>
      </g>
    </g>
    <g
       id="g3798"
       transform="translate(-17.129471,0)">
      <text
         id="text3790"
         y="384.36218"
         x="264"
         style="font-size:40px;font-style:normal;font-weight:normal;fill:#c5c5c5;fill-opacity:1;stroke:none;stroke-width:1px;stroke-linecap:butt;stroke-linejoin:miter;stroke-opacity:1;font-family:Bitstream Vera Sans"
         xml:space="preserve"><tspan
           style="font-style:normal;font-variant:normal;font-weight:bold;font-stretch:normal;fill:#c5c5c5;fill-opacity:1;font-family:Sans;-inkscape-font-specification:Sans Bold"
           y="384.36218"
           x="264"
           id="tspan3792"
           sodipodi:role="line">Install gedit</tspan></text>
      <text
         xml:space="preserve"
         style="font-size:40px;font-style:normal;font-weight:normal;fill:#0e3b76;fill-opacity:1;stroke:none;stroke-width:1px;stroke-linecap:butt;stroke-linejoin:miter;stroke-opacity:1;font-family:Bitstream Vera Sans"
         x="260"
         y="382.36218"
         id="text3794"><tspan
           sodipodi:role="line"
           id="tspan3796"
           x="260"
           y="382.36218"
           style="font-style:normal;font-variant:normal;font-weight:bold;font-stretch:normal;fill:#0e3b76;fill-opacity:1;font-family:Sans;-inkscape-font-specification:Sans Bold">Install gedit</tspan></text>
    </g>
    <text
       xml:space="preserve"
       style="font-size:40px;font-style:normal;font-weight:normal;fill:#000000;fill-opacity:1;stroke:none;stroke-width:1px;stroke-linecap:butt;stroke-linejoin:miter;stroke-opacity:1;font-family:Bitstream Vera Sans"
       x="169"
       y="437.36218"
       id="text9527"><tspan
         sodipodi:role="line"
         id="tspan9529"
         x="169"
         y="437.36218"
         style="font-size:16px;font-style:normal;font-variant:normal;font-weight:normal;font-stretch:normal;fill:#505050;fill-opacity:1;font-family:Sans;-inkscape-font-specification:Sans">Drag this...</tspan></text>
    <text
       id="text9531"
       y="527.36218"
       x="380"
       style="font-size:40px;font-style:normal;font-weight:normal;fill:#000000;fill-opacity:1;stroke:none;stroke-width:1px;stroke-linecap:butt;stroke-linejoin:miter;stroke-opacity:1;font-family:Bitstream Vera Sans"
       xml:space="preserve"><tspan
         style="font-size:16px;font-style:normal;font-variant:normal;font-weight:normal;font-stretch:normal;fill:#505050;fill-opacity:1;font-family:Sans;-inkscape-font-specification:Sans"
         y="527.36218"
         x="380"
         id="tspan9533"
         sodipodi:role="line">... onto this</tspan></text>
    <path
       style="fill:none;fill-rule:evenodd;stroke:url(#linearGradient9551);stroke-width:20;stroke-linecap:butt;stroke-linejoin:miter;stroke-opacity:1;stroke-miterlimit:4;stroke-dasharray:none;fill-opacity:1"
       d="M 262,517.36218 C 262,517.36218 337,457.36218 435,457.36218"
       id="path9535"
       sodipodi:nodetypes="cs" />
    <path
       style="fill:#a6d1ef;fill-opacity:1;stroke:#4178ce;stroke-width:0;stroke-linecap:butt;stroke-linejoin:miter;stroke-miterlimit:4;stroke-dasharray:none;stroke-opacity:1"
       d="M 434.32487,429.73325 L 462.53555,457.94393 L 434.32487,486.15461 L 434.32487,429.73325 z"
       id="rect9553"
       sodipodi:nodetypes="cccc" />
  </g>
</svg>
